<svg width="546" height="41" viewBox="0 0 546 41" fill="none" xmlns="http://www.w3.org/2000/svg">
<mask id="path-1-outside-1_2111_514" maskUnits="userSpaceOnUse" x="0" y="0" width="546" height="41" fill="black">
<rect fill="white" width="546" height="41"/>
<path d="M1 28.4541V1.46533H23.4883V28.4541H18.9179V5.49812H5.57036V28.4541H1Z"/>
<path d="M53.7783 28.9711C51.7354 28.9711 49.8658 28.6092 48.1692 27.8854C46.5072 27.1271 45.053 26.093 43.8066 24.7832C42.5947 23.4734 41.6426 21.974 40.9501 20.2851C40.2922 18.5961 39.9633 16.8038 39.9633 14.908C39.9633 12.3573 40.5346 10.0307 41.6772 7.92815C42.8198 5.82558 44.4298 4.15386 46.5072 2.91299C48.5847 1.63766 50.991 1 53.7263 1C56.3924 1 58.7122 1.6032 60.6857 2.80959C62.6939 3.98152 64.1828 5.56706 65.1522 7.56623L60.6857 8.9622C59.9933 7.68687 59.0238 6.70452 57.7773 6.01515C56.5309 5.29132 55.1459 4.9294 53.6225 4.9294C51.9605 4.9294 50.4371 5.36025 49.0521 6.22196C47.7018 7.08367 46.6284 8.27283 45.8321 9.78944C45.0357 11.2716 44.6375 12.9778 44.6375 14.908C44.6375 16.8038 45.0357 18.5272 45.8321 20.0783C46.663 21.5949 47.7537 22.8013 49.104 23.6974C50.489 24.5936 52.0124 25.0417 53.6744 25.0417C54.7477 25.0417 55.7691 24.8521 56.7386 24.473C57.7427 24.0938 58.6083 23.594 59.3354 22.9736C60.0971 22.3187 60.6165 21.6121 60.8935 20.8538L65.36 22.1981C64.806 23.5079 63.9577 24.6798 62.8151 25.7139C61.7071 26.7134 60.3741 27.5062 58.816 28.0922C57.2926 28.6781 55.6133 28.9711 53.7783 28.9711Z"/>
<path d="M81.3932 28.4541V1.51703H85.9635V22.3532L101.129 1.46533H105.284V28.4541H100.713V8.03156L85.7558 28.4541H81.3932Z"/>
<path d="M125.518 1.46533L132.686 11.3922L133.101 12.2195L133.568 11.3922L140.684 1.46533H145.773L135.75 15.0114L145.825 28.4541H140.736L133.568 18.5789L133.101 17.8034L132.686 18.5789L125.518 28.4541H120.429L130.504 15.0114L120.481 1.46533H125.518Z"/>
<path d="M172.868 28.9711C170.825 28.9711 168.973 28.6092 167.311 27.8854C165.649 27.1271 164.212 26.1102 163 24.8349C161.788 23.5251 160.854 22.0257 160.196 20.3368C159.538 18.6478 159.209 16.8727 159.209 15.0114C159.209 13.1156 159.538 11.3233 160.196 9.63434C160.854 7.94539 161.788 6.46324 163 5.18791C164.212 3.87811 165.649 2.86129 167.311 2.13746C169.008 1.37915 170.86 1 172.868 1C174.911 1 176.763 1.37915 178.425 2.13746C180.087 2.86129 181.524 3.87811 182.736 5.18791C183.982 6.46324 184.935 7.94539 185.592 9.63434C186.25 11.3233 186.579 13.1156 186.579 15.0114C186.579 16.8727 186.25 18.6478 185.592 20.3368C184.935 22.0257 184 23.5251 182.788 24.8349C181.576 26.1102 180.122 27.1271 178.425 27.8854C176.763 28.6092 174.911 28.9711 172.868 28.9711ZM163.883 15.0631C163.883 16.9244 164.281 18.6134 165.078 20.13C165.909 21.6466 166.999 22.853 168.35 23.7491C169.7 24.6109 171.206 25.0417 172.868 25.0417C174.53 25.0417 176.036 24.5936 177.387 23.6974C178.772 22.8013 179.862 21.5949 180.659 20.0783C181.49 18.5272 181.905 16.821 181.905 14.9597C181.905 13.0984 181.49 11.4095 180.659 9.89285C179.862 8.37624 178.772 7.16984 177.387 6.27367C176.036 5.37749 174.53 4.9294 172.868 4.9294C171.206 4.9294 169.7 5.39472 168.35 6.32536C166.999 7.22154 165.909 8.42795 165.078 9.94456C164.281 11.4612 163.883 13.1673 163.883 15.0631Z"/>
<path d="M200.635 28.6609V24.5764C201.535 24.5764 202.331 24.3523 203.024 23.9043C203.751 23.4217 204.392 22.6289 204.945 21.5259C205.499 20.3885 205.932 18.8374 206.244 16.8727C206.59 14.8735 206.815 12.3401 206.919 9.27242L207.231 1.46533H225.668V28.4541H221.098V5.49812H211.282L211.178 9.68604C211.039 13.3742 210.728 16.4418 210.243 18.8891C209.758 21.3364 209.083 23.2666 208.217 24.6798C207.352 26.093 206.279 27.1098 204.997 27.7303C203.751 28.3507 202.297 28.6609 200.635 28.6609Z"/>
<path d="M255.797 28.9711C253.754 28.9711 251.902 28.6092 250.24 27.8854C248.578 27.1271 247.141 26.1102 245.929 24.8349C244.718 23.5251 243.783 22.0257 243.125 20.3368C242.467 18.6478 242.138 16.8727 242.138 15.0114C242.138 13.1156 242.467 11.3233 243.125 9.63434C243.783 7.94539 244.718 6.46324 245.929 5.18791C247.141 3.87811 248.578 2.86129 250.24 2.13746C251.937 1.37915 253.789 1 255.797 1C257.84 1 259.692 1.37915 261.354 2.13746C263.016 2.86129 264.453 3.87811 265.665 5.18791C266.912 6.46324 267.864 7.94539 268.522 9.63434C269.179 11.3233 269.508 13.1156 269.508 15.0114C269.508 16.8727 269.179 18.6478 268.522 20.3368C267.864 22.0257 266.929 23.5251 265.717 24.8349C264.505 26.1102 263.051 27.1271 261.354 27.8854C259.692 28.6092 257.84 28.9711 255.797 28.9711ZM246.812 15.0631C246.812 16.9244 247.211 18.6134 248.007 20.13C248.838 21.6466 249.929 22.853 251.279 23.7491C252.629 24.6109 254.135 25.0417 255.797 25.0417C257.459 25.0417 258.965 24.5936 260.316 23.6974C261.701 22.8013 262.791 21.5949 263.588 20.0783C264.419 18.5272 264.834 16.821 264.834 14.9597C264.834 13.0984 264.419 11.4095 263.588 9.89285C262.791 8.37624 261.701 7.16984 260.316 6.27367C258.965 5.37749 257.459 4.9294 255.797 4.9294C254.135 4.9294 252.629 5.39472 251.279 6.32536C249.929 7.22154 248.838 8.42795 248.007 9.94456C247.211 11.4612 246.812 13.1673 246.812 15.0631Z"/>
<path d="M285.901 28.4541V1.46533H302.624V5.49812H290.471V28.4541H285.901Z"/>
<path d="M342.203 28.4541V1.51703H346.773V22.3532L361.938 1.46533H366.093V28.4541H361.523V8.03156L346.565 28.4541H342.203Z"/>
<path d="M408.293 28.4541V1.46533H412.864V12.5814H415.876L424.393 1.46533H429.587L419.46 14.5461L430.782 28.4541H425.484L415.876 16.7693H412.864V28.4541H408.293Z"/>
<path d="M456.605 28.9711C454.562 28.9711 452.709 28.6092 451.048 27.8854C449.386 27.1271 447.949 26.1102 446.737 24.8349C445.525 23.5251 444.59 22.0257 443.932 20.3368C443.274 18.6478 442.946 16.8727 442.946 15.0114C442.946 13.1156 443.274 11.3233 443.932 9.63434C444.59 7.94539 445.525 6.46324 446.737 5.18791C447.949 3.87811 449.386 2.86129 451.048 2.13746C452.744 1.37915 454.596 1 456.605 1C458.647 1 460.5 1.37915 462.162 2.13746C463.824 2.86129 465.261 3.87811 466.473 5.18791C467.719 6.46324 468.671 7.94539 469.329 9.63434C469.987 11.3233 470.316 13.1156 470.316 15.0114C470.316 16.8727 469.987 18.6478 469.329 20.3368C468.671 22.0257 467.736 23.5251 466.524 24.8349C465.313 26.1102 463.858 27.1271 462.162 27.8854C460.5 28.6092 458.647 28.9711 456.605 28.9711ZM447.62 15.0631C447.62 16.9244 448.018 18.6134 448.814 20.13C449.645 21.6466 450.736 22.853 452.086 23.7491C453.437 24.6109 454.943 25.0417 456.605 25.0417C458.267 25.0417 459.773 24.5936 461.123 23.6974C462.508 22.8013 463.599 21.5949 464.395 20.0783C465.226 18.5272 465.642 16.821 465.642 14.9597C465.642 13.0984 465.226 11.4095 464.395 9.89285C463.599 8.37624 462.508 7.16984 461.123 6.27367C459.773 5.37749 458.267 4.9294 456.605 4.9294C454.943 4.9294 453.437 5.39472 452.086 6.32536C450.736 7.22154 449.645 8.42795 448.814 9.94456C448.018 11.4612 447.62 13.1673 447.62 15.0631Z"/>
<path d="M489.173 39.777C488.584 39.777 487.978 39.6908 487.355 39.5184C486.766 39.3461 486.16 39.0876 485.537 38.7429L487.095 35.6408C487.407 35.8131 487.701 35.9337 487.978 36.0027C488.29 36.1061 488.584 36.1578 488.861 36.1578C489.692 36.1578 490.471 35.7614 491.198 34.9686C491.96 34.2103 492.67 33.0384 493.327 31.4528L494.626 28.1956L482.733 1.46533H487.563L496.703 23.8526L504.961 1.46533H509.48L496.807 32.8488C496.184 34.3999 495.474 35.6752 494.678 36.6748C493.881 37.7088 493.016 38.4844 492.081 39.0014C491.146 39.5184 490.177 39.777 489.173 39.777Z"/>
<path d="M540.377 28.4541V17.6482C539.304 18.1653 538.179 18.5444 537.002 18.7857C535.859 19.027 534.595 19.1476 533.21 19.1476C530.267 19.1476 528.017 18.3893 526.458 16.8727C524.935 15.3216 524.173 13.0122 524.173 9.94456V1.46533H528.744V9.32413C528.744 11.4956 529.194 13.0812 530.094 14.0808C530.994 15.0803 532.431 15.5801 534.405 15.5801C535.513 15.5801 536.603 15.4595 537.677 15.2182C538.785 14.9769 539.685 14.6495 540.377 14.2359V1.46533H545V28.4541H540.377Z"/>
</mask>
<path d="M1 28.4541V1.46533H23.4883V28.4541H18.9179V5.49812H5.57036V28.4541H1Z" fill="#FF8838"/>
<path d="M53.7783 28.9711C51.7354 28.9711 49.8658 28.6092 48.1692 27.8854C46.5072 27.1271 45.053 26.093 43.8066 24.7832C42.5947 23.4734 41.6426 21.974 40.9501 20.2851C40.2922 18.5961 39.9633 16.8038 39.9633 14.908C39.9633 12.3573 40.5346 10.0307 41.6772 7.92815C42.8198 5.82558 44.4298 4.15386 46.5072 2.91299C48.5847 1.63766 50.991 1 53.7263 1C56.3924 1 58.7122 1.6032 60.6857 2.80959C62.6939 3.98152 64.1828 5.56706 65.1522 7.56623L60.6857 8.9622C59.9933 7.68687 59.0238 6.70452 57.7773 6.01515C56.5309 5.29132 55.1459 4.9294 53.6225 4.9294C51.9605 4.9294 50.4371 5.36025 49.0521 6.22196C47.7018 7.08367 46.6284 8.27283 45.8321 9.78944C45.0357 11.2716 44.6375 12.9778 44.6375 14.908C44.6375 16.8038 45.0357 18.5272 45.8321 20.0783C46.663 21.5949 47.7537 22.8013 49.104 23.6974C50.489 24.5936 52.0124 25.0417 53.6744 25.0417C54.7477 25.0417 55.7691 24.8521 56.7386 24.473C57.7427 24.0938 58.6083 23.594 59.3354 22.9736C60.0971 22.3187 60.6165 21.6121 60.8935 20.8538L65.36 22.1981C64.806 23.5079 63.9577 24.6798 62.8151 25.7139C61.7071 26.7134 60.3741 27.5062 58.816 28.0922C57.2926 28.6781 55.6133 28.9711 53.7783 28.9711Z" fill="#FF8838"/>
<path d="M81.3932 28.4541V1.51703H85.9635V22.3532L101.129 1.46533H105.284V28.4541H100.713V8.03156L85.7558 28.4541H81.3932Z" fill="#FF8838"/>
<path d="M125.518 1.46533L132.686 11.3922L133.101 12.2195L133.568 11.3922L140.684 1.46533H145.773L135.75 15.0114L145.825 28.4541H140.736L133.568 18.5789L133.101 17.8034L132.686 18.5789L125.518 28.4541H120.429L130.504 15.0114L120.481 1.46533H125.518Z" fill="#FF8838"/>
<path d="M172.868 28.9711C170.825 28.9711 168.973 28.6092 167.311 27.8854C165.649 27.1271 164.212 26.1102 163 24.8349C161.788 23.5251 160.854 22.0257 160.196 20.3368C159.538 18.6478 159.209 16.8727 159.209 15.0114C159.209 13.1156 159.538 11.3233 160.196 9.63434C160.854 7.94539 161.788 6.46324 163 5.18791C164.212 3.87811 165.649 2.86129 167.311 2.13746C169.008 1.37915 170.86 1 172.868 1C174.911 1 176.763 1.37915 178.425 2.13746C180.087 2.86129 181.524 3.87811 182.736 5.18791C183.982 6.46324 184.935 7.94539 185.592 9.63434C186.25 11.3233 186.579 13.1156 186.579 15.0114C186.579 16.8727 186.25 18.6478 185.592 20.3368C184.935 22.0257 184 23.5251 182.788 24.8349C181.576 26.1102 180.122 27.1271 178.425 27.8854C176.763 28.6092 174.911 28.9711 172.868 28.9711ZM163.883 15.0631C163.883 16.9244 164.281 18.6134 165.078 20.13C165.909 21.6466 166.999 22.853 168.35 23.7491C169.7 24.6109 171.206 25.0417 172.868 25.0417C174.53 25.0417 176.036 24.5936 177.387 23.6974C178.772 22.8013 179.862 21.5949 180.659 20.0783C181.49 18.5272 181.905 16.821 181.905 14.9597C181.905 13.0984 181.49 11.4095 180.659 9.89285C179.862 8.37624 178.772 7.16984 177.387 6.27367C176.036 5.37749 174.53 4.9294 172.868 4.9294C171.206 4.9294 169.7 5.39472 168.35 6.32536C166.999 7.22154 165.909 8.42795 165.078 9.94456C164.281 11.4612 163.883 13.1673 163.883 15.0631Z" fill="#FF8838"/>
<path d="M200.635 28.6609V24.5764C201.535 24.5764 202.331 24.3523 203.024 23.9043C203.751 23.4217 204.392 22.6289 204.945 21.5259C205.499 20.3885 205.932 18.8374 206.244 16.8727C206.59 14.8735 206.815 12.3401 206.919 9.27242L207.231 1.46533H225.668V28.4541H221.098V5.49812H211.282L211.178 9.68604C211.039 13.3742 210.728 16.4418 210.243 18.8891C209.758 21.3364 209.083 23.2666 208.217 24.6798C207.352 26.093 206.279 27.1098 204.997 27.7303C203.751 28.3507 202.297 28.6609 200.635 28.6609Z" fill="#FF8838"/>
<path d="M255.797 28.9711C253.754 28.9711 251.902 28.6092 250.24 27.8854C248.578 27.1271 247.141 26.1102 245.929 24.8349C244.718 23.5251 243.783 22.0257 243.125 20.3368C242.467 18.6478 242.138 16.8727 242.138 15.0114C242.138 13.1156 242.467 11.3233 243.125 9.63434C243.783 7.94539 244.718 6.46324 245.929 5.18791C247.141 3.87811 248.578 2.86129 250.24 2.13746C251.937 1.37915 253.789 1 255.797 1C257.84 1 259.692 1.37915 261.354 2.13746C263.016 2.86129 264.453 3.87811 265.665 5.18791C266.912 6.46324 267.864 7.94539 268.522 9.63434C269.179 11.3233 269.508 13.1156 269.508 15.0114C269.508 16.8727 269.179 18.6478 268.522 20.3368C267.864 22.0257 266.929 23.5251 265.717 24.8349C264.505 26.1102 263.051 27.1271 261.354 27.8854C259.692 28.6092 257.84 28.9711 255.797 28.9711ZM246.812 15.0631C246.812 16.9244 247.211 18.6134 248.007 20.13C248.838 21.6466 249.929 22.853 251.279 23.7491C252.629 24.6109 254.135 25.0417 255.797 25.0417C257.459 25.0417 258.965 24.5936 260.316 23.6974C261.701 22.8013 262.791 21.5949 263.588 20.0783C264.419 18.5272 264.834 16.821 264.834 14.9597C264.834 13.0984 264.419 11.4095 263.588 9.89285C262.791 8.37624 261.701 7.16984 260.316 6.27367C258.965 5.37749 257.459 4.9294 255.797 4.9294C254.135 4.9294 252.629 5.39472 251.279 6.32536C249.929 7.22154 248.838 8.42795 248.007 9.94456C247.211 11.4612 246.812 13.1673 246.812 15.0631Z" fill="#FF8838"/>
<path d="M285.901 28.4541V1.46533H302.624V5.49812H290.471V28.4541H285.901Z" fill="#FF8838"/>
<path d="M342.203 28.4541V1.51703H346.773V22.3532L361.938 1.46533H366.093V28.4541H361.523V8.03156L346.565 28.4541H342.203Z" fill="#FF8838"/>
<path d="M408.293 28.4541V1.46533H412.864V12.5814H415.876L424.393 1.46533H429.587L419.46 14.5461L430.782 28.4541H425.484L415.876 16.7693H412.864V28.4541H408.293Z" fill="#FF8838"/>
<path d="M456.605 28.9711C454.562 28.9711 452.709 28.6092 451.048 27.8854C449.386 27.1271 447.949 26.1102 446.737 24.8349C445.525 23.5251 444.59 22.0257 443.932 20.3368C443.274 18.6478 442.946 16.8727 442.946 15.0114C442.946 13.1156 443.274 11.3233 443.932 9.63434C444.59 7.94539 445.525 6.46324 446.737 5.18791C447.949 3.87811 449.386 2.86129 451.048 2.13746C452.744 1.37915 454.596 1 456.605 1C458.647 1 460.5 1.37915 462.162 2.13746C463.824 2.86129 465.261 3.87811 466.473 5.18791C467.719 6.46324 468.671 7.94539 469.329 9.63434C469.987 11.3233 470.316 13.1156 470.316 15.0114C470.316 16.8727 469.987 18.6478 469.329 20.3368C468.671 22.0257 467.736 23.5251 466.524 24.8349C465.313 26.1102 463.858 27.1271 462.162 27.8854C460.5 28.6092 458.647 28.9711 456.605 28.9711ZM447.62 15.0631C447.62 16.9244 448.018 18.6134 448.814 20.13C449.645 21.6466 450.736 22.853 452.086 23.7491C453.437 24.6109 454.943 25.0417 456.605 25.0417C458.267 25.0417 459.773 24.5936 461.123 23.6974C462.508 22.8013 463.599 21.5949 464.395 20.0783C465.226 18.5272 465.642 16.821 465.642 14.9597C465.642 13.0984 465.226 11.4095 464.395 9.89285C463.599 8.37624 462.508 7.16984 461.123 6.27367C459.773 5.37749 458.267 4.9294 456.605 4.9294C454.943 4.9294 453.437 5.39472 452.086 6.32536C450.736 7.22154 449.645 8.42795 448.814 9.94456C448.018 11.4612 447.62 13.1673 447.62 15.0631Z" fill="#FF8838"/>
<path d="M489.173 39.777C488.584 39.777 487.978 39.6908 487.355 39.5184C486.766 39.3461 486.16 39.0876 485.537 38.7429L487.095 35.6408C487.407 35.8131 487.701 35.9337 487.978 36.0027C488.29 36.1061 488.584 36.1578 488.861 36.1578C489.692 36.1578 490.471 35.7614 491.198 34.9686C491.96 34.2103 492.67 33.0384 493.327 31.4528L494.626 28.1956L482.733 1.46533H487.563L496.703 23.8526L504.961 1.46533H509.48L496.807 32.8488C496.184 34.3999 495.474 35.6752 494.678 36.6748C493.881 37.7088 493.016 38.4844 492.081 39.0014C491.146 39.5184 490.177 39.777 489.173 39.777Z" fill="#FF8838"/>
<path d="M540.377 28.4541V17.6482C539.304 18.1653 538.179 18.5444 537.002 18.7857C535.859 19.027 534.595 19.1476 533.21 19.1476C530.267 19.1476 528.017 18.3893 526.458 16.8727C524.935 15.3216 524.173 13.0122 524.173 9.94456V1.46533H528.744V9.32413C528.744 11.4956 529.194 13.0812 530.094 14.0808C530.994 15.0803 532.431 15.5801 534.405 15.5801C535.513 15.5801 536.603 15.4595 537.677 15.2182C538.785 14.9769 539.685 14.6495 540.377 14.2359V1.46533H545V28.4541H540.377Z" fill="#FF8838"/>
<path d="M1 28.4541V1.46533H23.4883V28.4541H18.9179V5.49812H5.57036V28.4541H1Z" stroke="#FF8838" stroke-width="2" mask="url(#path-1-outside-1_2111_514)"/>
<path d="M53.7783 28.9711C51.7354 28.9711 49.8658 28.6092 48.1692 27.8854C46.5072 27.1271 45.053 26.093 43.8066 24.7832C42.5947 23.4734 41.6426 21.974 40.9501 20.2851C40.2922 18.5961 39.9633 16.8038 39.9633 14.908C39.9633 12.3573 40.5346 10.0307 41.6772 7.92815C42.8198 5.82558 44.4298 4.15386 46.5072 2.91299C48.5847 1.63766 50.991 1 53.7263 1C56.3924 1 58.7122 1.6032 60.6857 2.80959C62.6939 3.98152 64.1828 5.56706 65.1522 7.56623L60.6857 8.9622C59.9933 7.68687 59.0238 6.70452 57.7773 6.01515C56.5309 5.29132 55.1459 4.9294 53.6225 4.9294C51.9605 4.9294 50.4371 5.36025 49.0521 6.22196C47.7018 7.08367 46.6284 8.27283 45.8321 9.78944C45.0357 11.2716 44.6375 12.9778 44.6375 14.908C44.6375 16.8038 45.0357 18.5272 45.8321 20.0783C46.663 21.5949 47.7537 22.8013 49.104 23.6974C50.489 24.5936 52.0124 25.0417 53.6744 25.0417C54.7477 25.0417 55.7691 24.8521 56.7386 24.473C57.7427 24.0938 58.6083 23.594 59.3354 22.9736C60.0971 22.3187 60.6165 21.6121 60.8935 20.8538L65.36 22.1981C64.806 23.5079 63.9577 24.6798 62.8151 25.7139C61.7071 26.7134 60.3741 27.5062 58.816 28.0922C57.2926 28.6781 55.6133 28.9711 53.7783 28.9711Z" stroke="#FF8838" stroke-width="2" mask="url(#path-1-outside-1_2111_514)"/>
<path d="M81.3932 28.4541V1.51703H85.9635V22.3532L101.129 1.46533H105.284V28.4541H100.713V8.03156L85.7558 28.4541H81.3932Z" stroke="#FF8838" stroke-width="2" mask="url(#path-1-outside-1_2111_514)"/>
<path d="M125.518 1.46533L132.686 11.3922L133.101 12.2195L133.568 11.3922L140.684 1.46533H145.773L135.75 15.0114L145.825 28.4541H140.736L133.568 18.5789L133.101 17.8034L132.686 18.5789L125.518 28.4541H120.429L130.504 15.0114L120.481 1.46533H125.518Z" stroke="#FF8838" stroke-width="2" mask="url(#path-1-outside-1_2111_514)"/>
<path d="M172.868 28.9711C170.825 28.9711 168.973 28.6092 167.311 27.8854C165.649 27.1271 164.212 26.1102 163 24.8349C161.788 23.5251 160.854 22.0257 160.196 20.3368C159.538 18.6478 159.209 16.8727 159.209 15.0114C159.209 13.1156 159.538 11.3233 160.196 9.63434C160.854 7.94539 161.788 6.46324 163 5.18791C164.212 3.87811 165.649 2.86129 167.311 2.13746C169.008 1.37915 170.86 1 172.868 1C174.911 1 176.763 1.37915 178.425 2.13746C180.087 2.86129 181.524 3.87811 182.736 5.18791C183.982 6.46324 184.935 7.94539 185.592 9.63434C186.25 11.3233 186.579 13.1156 186.579 15.0114C186.579 16.8727 186.25 18.6478 185.592 20.3368C184.935 22.0257 184 23.5251 182.788 24.8349C181.576 26.1102 180.122 27.1271 178.425 27.8854C176.763 28.6092 174.911 28.9711 172.868 28.9711ZM163.883 15.0631C163.883 16.9244 164.281 18.6134 165.078 20.13C165.909 21.6466 166.999 22.853 168.35 23.7491C169.7 24.6109 171.206 25.0417 172.868 25.0417C174.53 25.0417 176.036 24.5936 177.387 23.6974C178.772 22.8013 179.862 21.5949 180.659 20.0783C181.49 18.5272 181.905 16.821 181.905 14.9597C181.905 13.0984 181.49 11.4095 180.659 9.89285C179.862 8.37624 178.772 7.16984 177.387 6.27367C176.036 5.37749 174.53 4.9294 172.868 4.9294C171.206 4.9294 169.7 5.39472 168.35 6.32536C166.999 7.22154 165.909 8.42795 165.078 9.94456C164.281 11.4612 163.883 13.1673 163.883 15.0631Z" stroke="#FF8838" stroke-width="2" mask="url(#path-1-outside-1_2111_514)"/>
<path d="M200.635 28.6609V24.5764C201.535 24.5764 202.331 24.3523 203.024 23.9043C203.751 23.4217 204.392 22.6289 204.945 21.5259C205.499 20.3885 205.932 18.8374 206.244 16.8727C206.59 14.8735 206.815 12.3401 206.919 9.27242L207.231 1.46533H225.668V28.4541H221.098V5.49812H211.282L211.178 9.68604C211.039 13.3742 210.728 16.4418 210.243 18.8891C209.758 21.3364 209.083 23.2666 208.217 24.6798C207.352 26.093 206.279 27.1098 204.997 27.7303C203.751 28.3507 202.297 28.6609 200.635 28.6609Z" stroke="#FF8838" stroke-width="2" mask="url(#path-1-outside-1_2111_514)"/>
<path d="M255.797 28.9711C253.754 28.9711 251.902 28.6092 250.24 27.8854C248.578 27.1271 247.141 26.1102 245.929 24.8349C244.718 23.5251 243.783 22.0257 243.125 20.3368C242.467 18.6478 242.138 16.8727 242.138 15.0114C242.138 13.1156 242.467 11.3233 243.125 9.63434C243.783 7.94539 244.718 6.46324 245.929 5.18791C247.141 3.87811 248.578 2.86129 250.24 2.13746C251.937 1.37915 253.789 1 255.797 1C257.84 1 259.692 1.37915 261.354 2.13746C263.016 2.86129 264.453 3.87811 265.665 5.18791C266.912 6.46324 267.864 7.94539 268.522 9.63434C269.179 11.3233 269.508 13.1156 269.508 15.0114C269.508 16.8727 269.179 18.6478 268.522 20.3368C267.864 22.0257 266.929 23.5251 265.717 24.8349C264.505 26.1102 263.051 27.1271 261.354 27.8854C259.692 28.6092 257.84 28.9711 255.797 28.9711ZM246.812 15.0631C246.812 16.9244 247.211 18.6134 248.007 20.13C248.838 21.6466 249.929 22.853 251.279 23.7491C252.629 24.6109 254.135 25.0417 255.797 25.0417C257.459 25.0417 258.965 24.5936 260.316 23.6974C261.701 22.8013 262.791 21.5949 263.588 20.0783C264.419 18.5272 264.834 16.821 264.834 14.9597C264.834 13.0984 264.419 11.4095 263.588 9.89285C262.791 8.37624 261.701 7.16984 260.316 6.27367C258.965 5.37749 257.459 4.9294 255.797 4.9294C254.135 4.9294 252.629 5.39472 251.279 6.32536C249.929 7.22154 248.838 8.42795 248.007 9.94456C247.211 11.4612 246.812 13.1673 246.812 15.0631Z" stroke="#FF8838" stroke-width="2" mask="url(#path-1-outside-1_2111_514)"/>
<path d="M285.901 28.4541V1.46533H302.624V5.49812H290.471V28.4541H285.901Z" stroke="#FF8838" stroke-width="2" mask="url(#path-1-outside-1_2111_514)"/>
<path d="M342.203 28.4541V1.51703H346.773V22.3532L361.938 1.46533H366.093V28.4541H361.523V8.03156L346.565 28.4541H342.203Z" stroke="#FF8838" stroke-width="2" mask="url(#path-1-outside-1_2111_514)"/>
<path d="M408.293 28.4541V1.46533H412.864V12.5814H415.876L424.393 1.46533H429.587L419.46 14.5461L430.782 28.4541H425.484L415.876 16.7693H412.864V28.4541H408.293Z" stroke="#FF8838" stroke-width="2" mask="url(#path-1-outside-1_2111_514)"/>
<path d="M456.605 28.9711C454.562 28.9711 452.709 28.6092 451.048 27.8854C449.386 27.1271 447.949 26.1102 446.737 24.8349C445.525 23.5251 444.59 22.0257 443.932 20.3368C443.274 18.6478 442.946 16.8727 442.946 15.0114C442.946 13.1156 443.274 11.3233 443.932 9.63434C444.59 7.94539 445.525 6.46324 446.737 5.18791C447.949 3.87811 449.386 2.86129 451.048 2.13746C452.744 1.37915 454.596 1 456.605 1C458.647 1 460.5 1.37915 462.162 2.13746C463.824 2.86129 465.261 3.87811 466.473 5.18791C467.719 6.46324 468.671 7.94539 469.329 9.63434C469.987 11.3233 470.316 13.1156 470.316 15.0114C470.316 16.8727 469.987 18.6478 469.329 20.3368C468.671 22.0257 467.736 23.5251 466.524 24.8349C465.313 26.1102 463.858 27.1271 462.162 27.8854C460.5 28.6092 458.647 28.9711 456.605 28.9711ZM447.62 15.0631C447.62 16.9244 448.018 18.6134 448.814 20.13C449.645 21.6466 450.736 22.853 452.086 23.7491C453.437 24.6109 454.943 25.0417 456.605 25.0417C458.267 25.0417 459.773 24.5936 461.123 23.6974C462.508 22.8013 463.599 21.5949 464.395 20.0783C465.226 18.5272 465.642 16.821 465.642 14.9597C465.642 13.0984 465.226 11.4095 464.395 9.89285C463.599 8.37624 462.508 7.16984 461.123 6.27367C459.773 5.37749 458.267 4.9294 456.605 4.9294C454.943 4.9294 453.437 5.39472 452.086 6.32536C450.736 7.22154 449.645 8.42795 448.814 9.94456C448.018 11.4612 447.62 13.1673 447.62 15.0631Z" stroke="#FF8838" stroke-width="2" mask="url(#path-1-outside-1_2111_514)"/>
<path d="M489.173 39.777C488.584 39.777 487.978 39.6908 487.355 39.5184C486.766 39.3461 486.16 39.0876 485.537 38.7429L487.095 35.6408C487.407 35.8131 487.701 35.9337 487.978 36.0027C488.29 36.1061 488.584 36.1578 488.861 36.1578C489.692 36.1578 490.471 35.7614 491.198 34.9686C491.96 34.2103 492.67 33.0384 493.327 31.4528L494.626 28.1956L482.733 1.46533H487.563L496.703 23.8526L504.961 1.46533H509.48L496.807 32.8488C496.184 34.3999 495.474 35.6752 494.678 36.6748C493.881 37.7088 493.016 38.4844 492.081 39.0014C491.146 39.5184 490.177 39.777 489.173 39.777Z" stroke="#FF8838" stroke-width="2" mask="url(#path-1-outside-1_2111_514)"/>
<path d="M540.377 28.4541V17.6482C539.304 18.1653 538.179 18.5444 537.002 18.7857C535.859 19.027 534.595 19.1476 533.21 19.1476C530.267 19.1476 528.017 18.3893 526.458 16.8727C524.935 15.3216 524.173 13.0122 524.173 9.94456V1.46533H528.744V9.32413C528.744 11.4956 529.194 13.0812 530.094 14.0808C530.994 15.0803 532.431 15.5801 534.405 15.5801C535.513 15.5801 536.603 15.4595 537.677 15.2182C538.785 14.9769 539.685 14.6495 540.377 14.2359V1.46533H545V28.4541H540.377Z" stroke="#FF8838" stroke-width="2" mask="url(#path-1-outside-1_2111_514)"/>
</svg>
