<svg width="544" height="109" viewBox="0 0 544 109" fill="none" xmlns="http://www.w3.org/2000/svg">
<path d="M7.29928 0.747934L4.64294 6.81489L4.44618 5.33914C4.9053 5.33914 5.29883 5.50311 5.62677 5.83106C5.95472 6.159 6.11869 6.56346 6.11869 7.04445C6.11869 7.59102 5.93285 8.0392 5.56119 8.38901C5.21138 8.73882 4.78505 8.91372 4.28221 8.91372C3.82309 8.91372 3.42955 8.74975 3.10161 8.42181C2.77367 8.09386 2.6097 7.70033 2.6097 7.24121C2.6097 6.93514 2.65342 6.66184 2.74087 6.42135C2.85018 6.159 3.00323 5.85292 3.19999 5.50311L5.72516 0.747934H7.29928ZM12.8743 0.747934L10.218 6.81489L10.0212 5.33914C10.4803 5.33914 10.8739 5.50311 11.2018 5.83106C11.5298 6.159 11.6937 6.56346 11.6937 7.04445C11.6937 7.59102 11.5079 8.0392 11.1362 8.38901C10.7864 8.73882 10.3601 8.91372 9.85724 8.91372C9.39812 8.91372 9.00459 8.74975 8.67665 8.42181C8.3487 8.09386 8.18473 7.70033 8.18473 7.24121C8.18473 6.93514 8.22845 6.66184 8.31591 6.42135C8.42522 6.159 8.57826 5.85292 8.77503 5.50311L11.3002 0.747934H12.8743ZM27.7873 25.0813L29.2958 17.473L29.8533 18.1289H22.3434C20.026 18.1289 18.2223 17.5605 16.9323 16.4236C15.6425 15.2649 14.9975 13.647 14.9975 11.5701C14.9975 9.64613 15.4457 7.98455 16.342 6.58533C17.2385 5.16424 18.4956 4.07109 20.1134 3.30589C21.7531 2.51883 23.6552 2.1253 25.8196 2.1253H34.7397L30.1484 25.0813H27.7873ZM12.2099 25.0813L19.4903 17.0139H22.1466L14.9647 25.0813H12.2099ZM29.4598 16.7844L32.0833 3.53545L32.608 4.22413H25.5572C23.8301 4.22413 22.3653 4.50836 21.1628 5.07679C19.9604 5.64522 19.0422 6.45415 18.4081 7.50357C17.7741 8.55299 17.457 9.79917 17.457 11.2421C17.457 12.8162 17.9272 14.0187 18.8672 14.8495C19.8073 15.6585 21.1519 16.0629 22.9009 16.0629H30.2468L29.4598 16.7844ZM55.5671 25.2453C54.0805 25.2453 52.8015 24.9829 51.7302 24.4582C50.6808 23.9116 49.8719 23.1356 49.3034 22.1298C48.7569 21.1023 48.4727 19.867 48.4508 18.4241C48.4508 16.3033 48.8334 14.4451 49.5986 12.849C50.3638 11.2312 51.446 9.97404 52.8452 9.07769C54.2445 8.15945 55.8951 7.70033 57.7971 7.70033C59.2839 7.70033 60.5847 7.99548 61.6997 8.58578C62.8366 9.15421 63.722 9.98504 64.356 11.0781C65.0119 12.1713 65.3398 13.4721 65.3398 14.9807C65.3398 16.4673 65.0994 17.8338 64.6184 19.08C64.1375 20.3261 63.4488 21.4084 62.5523 22.3266C61.6779 23.2448 60.6503 23.9663 59.4697 24.491C58.2891 24.9938 56.9883 25.2453 55.5671 25.2453ZM44.7122 31.4434L49.4018 7.8643H51.6318L50.648 12.8162L49.6969 16.2597L49.3362 19.867L47.0406 31.4434H44.7122ZM55.5343 23.1793C56.9773 23.1793 58.2563 22.8404 59.3713 22.1626C60.4863 21.4631 61.3608 20.501 61.9948 19.2767C62.6507 18.0524 62.9787 16.6641 62.9787 15.1118C62.9787 13.4065 62.4867 12.0839 61.5029 11.1437C60.5191 10.2036 59.1199 9.73358 57.3052 9.73358C55.8842 9.73358 54.6052 10.0834 53.4683 10.783C52.3533 11.4826 51.4678 12.4446 50.812 13.6689C50.178 14.8714 49.8609 16.2597 49.8609 17.8338C49.8609 19.5172 50.3528 20.829 51.3367 21.7691C52.3205 22.7092 53.7198 23.1793 55.5343 23.1793ZM76.1761 25.2453C74.7113 25.2453 73.4104 24.9501 72.2735 24.3599C71.1367 23.7696 70.2513 22.9278 69.6172 21.8347C68.9832 20.7416 68.6662 19.4407 68.6662 17.9322C68.6662 16.4673 68.9067 15.1118 69.3876 13.8657C69.8686 12.6195 70.5464 11.5373 71.4209 10.619C72.2954 9.67889 73.3229 8.95745 74.5035 8.4546C75.706 7.95176 77.0069 7.70033 78.4061 7.70033C79.9146 7.70033 81.1936 7.97361 82.243 8.52019C83.2924 9.0449 84.1014 9.82106 84.6698 10.8486C85.2383 11.8543 85.5224 13.0786 85.5224 14.5216C85.5224 16.5985 85.1399 18.446 84.3746 20.0638C83.6095 21.6816 82.5273 22.9497 81.128 23.8679C79.7288 24.7862 78.0781 25.2453 76.1761 25.2453ZM76.668 23.1793C78.1109 23.1793 79.3899 22.8404 80.5049 22.1626C81.6418 21.4631 82.5273 20.501 83.1612 19.2767C83.8171 18.0524 84.1451 16.6641 84.1451 15.1118C84.1451 13.4065 83.6423 12.0839 82.6365 11.1437C81.6527 10.2036 80.2645 9.73358 78.4717 9.73358C77.0506 9.73358 75.7716 10.0834 74.6347 10.783C73.4979 11.4826 72.6015 12.4446 71.9456 13.6689C71.3116 14.8714 70.9946 16.2597 70.9946 17.8338C70.9946 19.5172 71.4865 20.829 72.4703 21.7691C73.476 22.7092 74.8753 23.1793 76.668 23.1793ZM82.3414 25.0813L83.3252 20.1294L84.309 16.6532L84.637 13.0458L85.6864 7.8643H88.0148L84.5714 25.0813H82.3414ZM99.7041 25.2781C97.2561 25.2781 95.3428 24.5566 93.9654 23.1137C92.5881 21.6707 91.8994 19.5828 91.8994 16.8499C91.8994 15.0354 92.1727 13.3082 92.7193 11.6684C93.2659 10.0287 94.042 8.53112 95.0476 7.17562C96.0534 5.82013 97.2561 4.68325 98.6546 3.76501C100.054 2.84677 101.596 2.21275 103.279 1.86294L111.28 0.19043L111.346 2.19089L103.803 3.76501C102.055 4.13668 100.503 4.8363 99.1466 5.86385C97.8136 6.8914 96.7198 8.18132 95.8675 9.73358C95.0368 11.2858 94.4901 13.0349 94.2278 14.9807L93.5391 14.5543C94.5448 12.6742 95.8457 11.2421 97.4413 10.2583C99.0376 9.27446 100.819 8.78255 102.787 8.78255C104.973 8.78255 106.679 9.38377 107.903 10.5862C109.149 11.7668 109.772 13.4284 109.772 15.571C109.772 17.4293 109.335 19.0909 108.46 20.5557C107.607 22.0206 106.416 23.1793 104.886 24.0319C103.377 24.8627 101.651 25.2781 99.7041 25.2781ZM99.868 23.4416C101.268 23.4416 102.524 23.1137 103.639 22.4578C104.777 21.78 105.662 20.8837 106.296 19.7686C106.952 18.6317 107.28 17.3528 107.28 15.9317C107.28 14.3139 106.82 13.0677 105.902 12.1932C104.984 11.2968 103.705 10.8486 102.065 10.8486C101.038 10.8486 100.054 11.0345 99.1138 11.4061C98.1743 11.7777 97.3323 12.2806 96.5886 12.9146C95.8457 13.5486 95.2554 14.2811 94.8181 15.1118C94.4028 15.9426 94.195 16.8281 94.195 17.7682C94.195 19.4735 94.6979 20.8509 95.7035 21.9003C96.7313 22.9278 98.1193 23.4416 99.868 23.4416ZM120.891 25.2453C119.295 25.2453 117.907 24.9501 116.726 24.3599C115.567 23.7477 114.66 22.895 114.004 21.8019C113.37 20.7088 113.053 19.4188 113.053 17.9322C113.053 15.9645 113.48 14.2155 114.332 12.6851C115.185 11.1328 116.366 9.91945 117.874 9.0449C119.383 8.14852 121.098 7.70033 123.023 7.70033C124.618 7.70033 125.995 7.99548 127.155 8.58578C128.335 9.17608 129.242 10.0178 129.877 11.1109C130.533 12.2041 130.861 13.494 130.861 14.9807C130.861 16.9483 130.434 18.7083 129.582 20.2606C128.729 21.791 127.548 23.0044 126.04 23.9007C124.552 24.7971 122.837 25.2453 120.891 25.2453ZM121.055 23.1793C122.498 23.1793 123.777 22.8404 124.892 22.1626C126.028 21.4631 126.914 20.501 127.548 19.2767C128.204 18.0524 128.532 16.6641 128.532 15.1118C128.532 13.4065 128.029 12.0839 127.024 11.1437C126.04 10.2036 124.651 9.73358 122.859 9.73358C121.437 9.73358 120.158 10.0834 119.022 10.783C117.885 11.4826 116.989 12.4446 116.333 13.6689C115.698 14.8714 115.382 16.2597 115.382 17.8338C115.382 19.5172 115.874 20.829 116.857 21.7691C117.862 22.7092 119.262 23.1793 121.055 23.1793ZM136.699 25.0813L139.847 9.27446L140.306 9.89755H133.223L133.616 7.8643H149.03L148.603 9.89755H141.454L142.176 9.27446L139.027 25.0813H136.699ZM155.728 25.2453C154.263 25.2453 152.962 24.9501 151.826 24.3599C150.689 23.7696 149.803 22.9278 149.169 21.8347C148.535 20.7416 148.218 19.4407 148.218 17.9322C148.218 16.4673 148.459 15.1118 148.94 13.8657C149.42 12.6195 150.098 11.5373 150.973 10.619C151.847 9.67889 152.875 8.95745 154.056 8.4546C155.258 7.95176 156.559 7.70033 157.958 7.70033C159.467 7.70033 160.746 7.97361 161.795 8.52019C162.845 9.0449 163.653 9.82106 164.222 10.8486C164.79 11.8543 165.075 13.0786 165.075 14.5216C165.075 16.5985 164.692 18.446 163.927 20.0638C163.161 21.6816 162.079 22.9497 160.68 23.8679C159.281 24.7862 157.63 25.2453 155.728 25.2453ZM156.22 23.1793C157.663 23.1793 158.942 22.8404 160.057 22.1626C161.193 21.4631 162.079 20.501 162.714 19.2767C163.369 18.0524 163.697 16.6641 163.697 15.1118C163.697 13.4065 163.194 12.0839 162.189 11.1437C161.205 10.2036 159.816 9.73358 158.024 9.73358C156.602 9.73358 155.323 10.0834 154.187 10.783C153.05 11.4826 152.154 12.4446 151.498 13.6689C150.863 14.8714 150.547 16.2597 150.547 17.8338C150.547 19.5172 151.039 20.829 152.023 21.7691C153.028 22.7092 154.427 23.1793 156.22 23.1793ZM161.894 25.0813L162.878 20.1294L163.861 16.6532L164.189 13.0458L165.239 7.8643H167.567L164.124 25.0813H161.894ZM170.763 25.0813L174.206 7.8643H176.534L175.059 15.2758H180.306L179.879 17.4075H174.632L173.091 25.0813H170.763ZM186.274 25.2453C184.722 25.2453 183.366 24.9501 182.208 24.3599C181.049 23.7477 180.152 22.895 179.519 21.8019C178.885 20.7088 178.568 19.4298 178.568 17.965C178.568 15.9973 178.994 14.2483 179.847 12.7179C180.699 11.1656 181.858 9.94125 183.323 9.0449C184.809 8.14852 186.514 7.70033 188.439 7.70033C190.013 7.70033 191.368 7.99548 192.505 8.58578C193.664 9.17608 194.561 10.0178 195.194 11.1109C195.828 12.2041 196.145 13.483 196.145 14.9479C196.145 16.9155 195.719 18.6755 194.866 20.2278C194.036 21.78 192.877 23.0044 191.39 23.9007C189.904 24.7971 188.199 25.2453 186.274 25.2453ZM186.471 23.1793C187.871 23.1793 189.117 22.8404 190.21 22.1626C191.325 21.4631 192.199 20.501 192.833 19.2767C193.467 18.0524 193.784 16.6532 193.784 15.0791C193.784 13.3956 193.303 12.0839 192.341 11.1437C191.38 10.2036 190.023 9.73358 188.275 9.73358C186.854 9.73358 185.586 10.0834 184.471 10.783C183.378 11.4826 182.514 12.4446 181.88 13.6689C181.246 14.8714 180.929 16.2706 180.929 17.8666C180.929 19.5282 181.41 20.829 182.372 21.7691C183.356 22.7092 184.722 23.1793 186.471 23.1793ZM220.634 25.0813L215.354 16.522L217.289 15.6366L223.29 25.0813H220.634ZM207.975 25.0813L211.452 7.8643H213.78L210.304 25.0813H207.975ZM211.157 17.4075L211.517 15.407H217.06L216.699 17.4075H211.157ZM217.355 16.7188L215.092 16.3908L223.717 7.8643H226.34L217.355 16.7188ZM233.967 25.2453C232.502 25.2453 231.201 24.9501 230.064 24.3599C228.927 23.7696 228.042 22.9278 227.408 21.8347C226.773 20.7416 226.457 19.4407 226.457 17.9322C226.457 16.4673 226.697 15.1118 227.178 13.8657C227.659 12.6195 228.337 11.5373 229.212 10.619C230.086 9.67889 231.114 8.95745 232.294 8.4546C233.496 7.95176 234.797 7.70033 236.197 7.70033C237.705 7.70033 238.984 7.97361 240.034 8.52019C241.083 9.0449 241.892 9.82106 242.461 10.8486C243.029 11.8543 243.313 13.0786 243.313 14.5216C243.313 16.5985 242.93 18.446 242.165 20.0638C241.4 21.6816 240.317 22.9497 238.919 23.8679C237.519 24.7862 235.869 25.2453 233.967 25.2453ZM234.459 23.1793C235.902 23.1793 237.181 22.8404 238.296 22.1626C239.432 21.4631 240.317 20.501 240.952 19.2767C241.608 18.0524 241.936 16.6641 241.936 15.1118C241.936 13.4065 241.432 12.0839 240.427 11.1437C239.444 10.2036 238.055 9.73358 236.263 9.73358C234.841 9.73358 233.562 10.0834 232.426 10.783C231.288 11.4826 230.392 12.4446 229.736 13.6689C229.102 14.8714 228.785 16.2597 228.785 17.8338C228.785 19.5172 229.277 20.829 230.261 21.7691C231.266 22.7092 232.666 23.1793 234.459 23.1793ZM240.132 25.0813L241.116 20.1294L242.1 16.6532L242.428 13.0458L243.477 7.8643H245.806L242.362 25.0813H240.132ZM261.627 25.0813L256.347 16.522L258.282 15.6366L264.283 25.0813H261.627ZM248.968 25.0813L252.445 7.8643H254.773L251.297 25.0813H248.968ZM252.149 17.4075L252.51 15.407H258.052L257.692 17.4075H252.149ZM258.348 16.7188L256.085 16.3908L264.71 7.8643H267.333L258.348 16.7188ZM277.002 25.0813L281.593 2.1253H291.398C293.606 2.1253 295.334 2.54069 296.58 3.37148C297.826 4.20227 298.449 5.41566 298.449 7.01165C298.449 8.49832 298.089 9.74448 297.367 10.7502C296.646 11.734 295.695 12.4774 294.514 12.9802C293.356 13.483 292.098 13.7345 290.743 13.7345L291.464 12.9802C293.301 12.9802 294.754 13.4065 295.826 14.2592C296.919 15.09 297.465 16.3252 297.465 17.965C297.465 19.4954 297.061 20.7962 296.252 21.8675C295.465 22.9388 294.339 23.7477 292.874 24.2943C291.409 24.819 289.671 25.0813 287.66 25.0813H277.002ZM279.789 23.0809H287.857C290.152 23.0809 291.923 22.6436 293.169 21.7691C294.438 20.8946 295.071 19.6375 295.071 17.9978C295.071 16.686 294.612 15.7677 293.694 15.243C292.798 14.7183 291.475 14.456 289.726 14.456H281.101L281.495 12.4555H289.234C290.546 12.4555 291.704 12.2696 292.71 11.898C293.737 11.5264 294.536 10.9689 295.104 10.2255C295.672 9.4603 295.957 8.53112 295.957 7.43798C295.957 6.30111 295.52 5.47032 294.645 4.94561C293.77 4.39903 292.536 4.12575 290.939 4.12575H283.561L279.789 23.0809ZM309.4 25.2453C307.76 25.2453 306.328 24.9501 305.104 24.3599C303.901 23.7477 302.972 22.895 302.316 21.8019C301.682 20.7088 301.365 19.4079 301.365 17.8994C301.365 15.9317 301.781 14.1827 302.611 12.6523C303.442 11.1218 304.579 9.91945 306.022 9.0449C307.465 8.14852 309.094 7.70033 310.908 7.70033C312.439 7.70033 313.761 7.99548 314.876 8.58578C315.991 9.15421 316.855 9.98504 317.467 11.0781C318.101 12.1713 318.418 13.483 318.418 15.0135C318.418 15.3633 318.396 15.724 318.353 16.0957C318.309 16.4455 318.254 16.7844 318.189 17.1123H303.07L303.366 15.3742H317.106L316.155 16.0301C316.374 14.6527 316.276 13.494 315.86 12.5539C315.444 11.6138 314.8 10.9033 313.925 10.4223C313.073 9.91945 312.045 9.66799 310.843 9.66799C309.443 9.66799 308.197 10.0178 307.104 10.7174C306.011 11.3952 305.159 12.3462 304.546 13.5705C303.934 14.773 303.628 16.1832 303.628 17.801C303.628 19.5282 304.12 20.8618 305.104 21.8019C306.11 22.7201 307.607 23.1793 309.596 23.1793C310.755 23.1793 311.826 22.9934 312.81 22.6218C313.794 22.2282 314.603 21.6926 315.237 21.0148L316.286 22.6873C315.477 23.4963 314.461 24.1303 313.237 24.5894C312.034 25.0266 310.755 25.2453 309.4 25.2453ZM324.21 25.0813L327.358 9.27446L327.818 9.89755H320.734L321.127 7.8643H336.541L336.114 9.89755H328.965L329.687 9.27446L326.539 25.0813H324.21ZM343.763 25.2453C342.124 25.2453 340.691 24.9501 339.467 24.3599C338.264 23.7477 337.336 22.895 336.68 21.8019C336.046 20.7088 335.729 19.4079 335.729 17.8994C335.729 15.9317 336.144 14.1827 336.975 12.6523C337.805 11.1218 338.943 9.91945 340.385 9.0449C341.828 8.14852 343.458 7.70033 345.272 7.70033C346.803 7.70033 348.125 7.99548 349.24 8.58578C350.355 9.15421 351.218 9.98504 351.831 11.0781C352.464 12.1713 352.782 13.483 352.782 15.0135C352.782 15.3633 352.76 15.724 352.716 16.0957C352.673 16.4455 352.618 16.7844 352.552 17.1123H337.434L337.729 15.3742H351.47L350.519 16.0301C350.738 14.6527 350.64 13.494 350.224 12.5539C349.808 11.6138 349.164 10.9033 348.289 10.4223C347.436 9.91945 346.409 9.66799 345.206 9.66799C343.807 9.66799 342.561 10.0178 341.468 10.7174C340.375 11.3952 339.522 12.3462 338.91 13.5705C338.297 14.773 337.991 16.1832 337.991 17.801C337.991 19.5282 338.483 20.8618 339.467 21.8019C340.473 22.7201 341.97 23.1793 343.96 23.1793C345.118 23.1793 346.19 22.9934 347.174 22.6218C348.158 22.2282 348.967 21.6926 349.601 21.0148L350.65 22.6873C349.841 23.4963 348.824 24.1303 347.6 24.5894C346.397 25.0266 345.118 25.2453 343.763 25.2453ZM365.704 25.2453C364.217 25.2453 362.938 24.9829 361.867 24.4582C360.817 23.9116 360.009 23.1356 359.44 22.1298C358.894 21.1023 358.609 19.867 358.587 18.4241C358.587 16.3033 358.97 14.4451 359.735 12.849C360.501 11.2312 361.583 9.97404 362.982 9.07769C364.381 8.15945 366.032 7.70033 367.934 7.70033C369.421 7.70033 370.721 7.99548 371.836 8.58578C372.973 9.15421 373.859 9.98504 374.493 11.0781C375.148 12.1713 375.476 13.4721 375.476 14.9807C375.476 16.4673 375.236 17.8338 374.755 19.08C374.275 20.3261 373.586 21.4084 372.689 22.3266C371.815 23.2448 370.787 23.9663 369.606 24.491C368.426 24.9938 367.125 25.2453 365.704 25.2453ZM354.849 31.4434L359.538 7.8643H361.768L360.785 12.8162L359.833 16.2597L359.473 19.867L357.177 31.4434H354.849ZM365.671 23.1793C367.114 23.1793 368.393 22.8404 369.508 22.1626C370.623 21.4631 371.498 20.501 372.131 19.2767C372.787 18.0524 373.115 16.6641 373.115 15.1118C373.115 13.4065 372.623 12.0839 371.639 11.1437C370.656 10.2036 369.257 9.73358 367.442 9.73358C366.021 9.73358 364.742 10.0834 363.605 10.783C362.49 11.4826 361.604 12.4446 360.948 13.6689C360.315 14.8714 359.997 16.2597 359.997 17.8338C359.997 19.5172 360.489 20.829 361.473 21.7691C362.457 22.7092 363.857 23.1793 365.671 23.1793ZM387.288 25.0813L390.732 7.8643H406.21L402.767 25.0813H400.439L403.554 9.27446L404.046 9.89755H392.01L392.732 9.27446L389.617 25.0813H387.288ZM417.486 25.2453C415.846 25.2453 414.415 24.9501 413.19 24.3599C411.988 23.7477 411.058 22.895 410.402 21.8019C409.769 20.7088 409.451 19.4079 409.451 17.8994C409.451 15.9317 409.867 14.1827 410.697 12.6523C411.529 11.1218 412.665 9.91945 414.108 9.0449C415.551 8.14852 417.18 7.70033 418.994 7.70033C420.525 7.70033 421.848 7.99548 422.963 8.58578C424.078 9.15421 424.942 9.98504 425.553 11.0781C426.188 12.1713 426.504 13.483 426.504 15.0135C426.504 15.3633 426.483 15.724 426.439 16.0957C426.395 16.4455 426.34 16.7844 426.275 17.1123H411.157L411.452 15.3742H425.193L424.242 16.0301C424.46 14.6527 424.362 13.494 423.946 12.5539C423.532 11.6138 422.886 10.9033 422.012 10.4223C421.159 9.91945 420.132 9.66799 418.929 9.66799C417.53 9.66799 416.284 10.0178 415.19 10.7174C414.097 11.3952 413.245 12.3462 412.632 13.5705C412.021 14.773 411.714 16.1832 411.714 17.801C411.714 19.5282 412.206 20.8618 413.19 21.8019C414.196 22.7201 415.694 23.1793 417.683 23.1793C418.842 23.1793 419.913 22.9934 420.897 22.6218C421.88 22.2282 422.69 21.6926 423.323 21.0148L424.373 22.6873C423.564 23.4963 422.548 24.1303 421.323 24.5894C420.121 25.0266 418.842 25.2453 417.486 25.2453ZM439.427 25.2453C437.941 25.2453 436.662 24.9829 435.59 24.4582C434.541 23.9116 433.732 23.1356 433.164 22.1298C432.617 21.1023 432.333 19.867 432.311 18.4241C432.311 16.3033 432.694 14.4451 433.459 12.849C434.224 11.2312 435.306 9.97404 436.705 9.07769C438.105 8.15945 439.755 7.70033 441.657 7.70033C443.144 7.70033 444.445 7.99548 445.56 8.58578C446.697 9.15421 447.582 9.98504 448.216 11.0781C448.872 12.1713 449.2 13.4721 449.2 14.9807C449.2 16.4673 448.96 17.8338 448.478 19.08C447.997 20.3261 447.309 21.4084 446.412 22.3266C445.538 23.2448 444.51 23.9663 443.33 24.491C442.149 24.9938 440.848 25.2453 439.427 25.2453ZM428.572 31.4434L433.262 7.8643H435.492L434.508 12.8162L433.557 16.2597L433.196 19.867L430.901 31.4434H428.572ZM439.394 23.1793C440.837 23.1793 442.116 22.8404 443.231 22.1626C444.346 21.4631 445.221 20.501 445.855 19.2767C446.511 18.0524 446.839 16.6641 446.839 15.1118C446.839 13.4065 446.347 12.0839 445.363 11.1437C444.379 10.2036 442.98 9.73358 441.165 9.73358C439.745 9.73358 438.466 10.0834 437.328 10.783C436.213 11.4826 435.328 12.4446 434.672 13.6689C434.038 14.8714 433.721 16.2597 433.721 17.8338C433.721 19.5172 434.213 20.829 435.197 21.7691C436.181 22.7092 437.58 23.1793 439.394 23.1793ZM460.561 25.2453C458.922 25.2453 457.489 24.9501 456.265 24.3599C455.062 23.7477 454.134 22.895 453.478 21.8019C452.843 20.7088 452.527 19.4079 452.527 17.8994C452.527 15.9317 452.941 14.1827 453.773 12.6523C454.603 11.1218 455.74 9.91945 457.183 9.0449C458.626 8.14852 460.255 7.70033 462.07 7.70033C463.6 7.70033 464.923 7.99548 466.038 8.58578C467.153 9.15421 468.016 9.98504 468.629 11.0781C469.262 12.1713 469.58 13.483 469.58 15.0135C469.58 15.3633 469.558 15.724 469.514 16.0957C469.47 16.4455 469.416 16.7844 469.35 17.1123H454.232L454.527 15.3742H468.268L467.317 16.0301C467.535 14.6527 467.436 13.494 467.022 12.5539C466.606 11.6138 465.961 10.9033 465.087 10.4223C464.234 9.91945 463.206 9.66799 462.004 9.66799C460.605 9.66799 459.358 10.0178 458.266 10.7174C457.172 11.3952 456.319 12.3462 455.708 13.5705C455.095 14.773 454.789 16.1832 454.789 17.801C454.789 19.5282 455.281 20.8618 456.265 21.8019C457.27 22.7201 458.768 23.1793 460.758 23.1793C461.916 23.1793 462.988 22.9934 463.972 22.6218C464.956 22.2282 465.764 21.6926 466.399 21.0148L467.448 22.6873C466.639 23.4963 465.622 24.1303 464.398 24.5894C463.195 25.0266 461.916 25.2453 460.561 25.2453ZM472.86 25.0813L476.303 7.8643H478.632L483.781 21.0804H482.797L493.389 7.8643H495.587L492.143 25.0813H490.012L492.93 10.5206L493.324 10.7174L483.453 22.9825H482.403L477.451 10.5862L477.91 10.4879L474.992 25.0813H472.86ZM506.87 25.2453C505.23 25.2453 503.799 24.9501 502.574 24.3599C501.372 23.7477 500.442 22.895 499.786 21.8019C499.152 20.7088 498.835 19.4079 498.835 17.8994C498.835 15.9317 499.251 14.1827 500.081 12.6523C500.913 11.1218 502.049 9.91945 503.492 9.0449C504.935 8.14852 506.564 7.70033 508.378 7.70033C509.909 7.70033 511.231 7.99548 512.346 8.58578C513.461 9.15421 514.326 9.98504 514.937 11.0781C515.572 12.1713 515.888 13.483 515.888 15.0135C515.888 15.3633 515.867 15.724 515.823 16.0957C515.779 16.4455 515.724 16.7844 515.659 17.1123H500.54L500.836 15.3742H514.576L513.625 16.0301C513.844 14.6527 513.746 13.494 513.33 12.5539C512.915 11.6138 512.27 10.9033 511.395 10.4223C510.543 9.91945 509.515 9.66799 508.313 9.66799C506.914 9.66799 505.668 10.0178 504.574 10.7174C503.481 11.3952 502.629 12.3462 502.016 13.5705C501.405 14.773 501.098 16.1832 501.098 17.801C501.098 19.5282 501.59 20.8618 502.574 21.8019C503.58 22.7201 505.078 23.1793 507.066 23.1793C508.226 23.1793 509.297 22.9934 510.28 22.6218C511.264 22.2282 512.073 21.6926 512.707 21.0148L513.757 22.6873C512.948 23.4963 511.932 24.1303 510.707 24.5894C509.505 25.0266 508.226 25.2453 506.87 25.2453ZM519.17 25.0813L522.613 7.8643H524.941L523.433 15.4726H534.255L535.796 7.8643H538.125L534.681 25.0813H532.353L533.861 17.473H523.039L521.498 25.0813H519.17ZM538.84 29.8693L541.497 23.8023L541.726 25.2453C541.245 25.2453 540.841 25.0813 540.513 24.7534C540.185 24.4254 540.021 24.021 540.021 23.54C540.021 22.9934 540.207 22.5453 540.578 22.1954C540.95 21.8456 541.376 21.6707 541.857 21.6707C542.339 21.6707 542.732 21.8347 543.038 22.1626C543.366 22.4687 543.53 22.8732 543.53 23.376C543.53 23.6603 543.475 23.9335 543.366 24.1959C543.278 24.4363 543.126 24.7425 542.907 25.1141L540.414 29.8693H538.84ZM9.13577 104.37C6.68712 104.37 4.77412 103.649 3.39676 102.206C2.0194 100.763 1.33072 98.6747 1.33072 95.9422C1.33072 94.1276 1.604 92.4004 2.15058 90.7607C2.69715 89.1209 3.47328 87.6233 4.47897 86.2678C5.48467 84.9124 6.68712 83.7755 8.08635 82.8572C9.48558 81.939 11.0269 81.305 12.7103 80.9551L20.7122 79.2826L20.7778 81.2831L13.2351 82.8572C11.4861 83.2289 9.93373 83.9285 8.57826 84.956C7.24462 85.9836 6.15148 87.2735 5.29883 88.8258C4.46804 90.378 3.92147 92.1271 3.65911 94.0729L2.97043 93.6465C3.97613 91.7664 5.27696 90.3343 6.87296 89.3505C8.46895 88.3667 10.2508 87.8747 12.2184 87.8747C14.4048 87.8747 16.1101 88.4759 17.3344 89.6784C18.5805 90.859 19.2036 92.5206 19.2036 94.6632C19.2036 96.5218 18.7664 98.1828 17.8919 99.6479C17.0392 101.113 15.8477 102.271 14.3173 103.124C12.8087 103.955 11.0815 104.37 9.13577 104.37ZM9.29974 102.534C10.699 102.534 11.9561 102.206 13.0711 101.55C14.208 100.872 15.0934 99.9758 15.7274 98.8608C16.3833 97.7236 16.7113 96.445 16.7113 95.0239C16.7113 93.4061 16.2521 92.1599 15.3339 91.2854C14.4157 90.389 13.1367 89.9408 11.497 89.9408C10.4694 89.9408 9.48558 90.1267 8.54547 90.4983C7.60536 90.8699 6.76365 91.3728 6.02031 92.0068C5.27697 92.6408 4.68667 93.3733 4.24941 94.2041C3.83401 95.0348 3.62632 95.9203 3.62632 96.8604C3.62632 98.5657 4.12916 99.9431 5.13486 100.992C6.16241 102.02 7.55071 102.534 9.29974 102.534ZM30.3222 104.337C28.7262 104.337 27.3379 104.042 26.1573 103.452C24.9986 102.84 24.0912 101.987 23.4353 100.894C22.8014 99.8013 22.4843 98.5107 22.4843 97.0244C22.4843 95.0567 22.9106 93.3077 23.7633 91.7773C24.6159 90.225 25.7965 89.0116 27.3051 88.1371C28.8136 87.2408 30.5299 86.7925 32.4538 86.7925C34.0498 86.7925 35.4272 87.0877 36.5859 87.678C37.7665 88.2683 38.6738 89.11 39.3078 90.2031C39.9637 91.2963 40.2916 92.5862 40.2916 94.0729C40.2916 96.0405 39.8653 97.8008 39.0127 99.3528C38.16 100.883 36.9794 102.097 35.4709 102.993C33.9842 103.889 32.268 104.337 30.3222 104.337ZM30.4861 102.271C31.9291 102.271 33.2081 101.933 34.3231 101.255C35.46 100.556 36.3454 99.5929 36.9794 98.3689C37.6353 97.1449 37.9632 95.7563 37.9632 94.2041C37.9632 92.4988 37.4604 91.1761 36.4547 90.2359C35.4709 89.2958 34.0826 88.8258 32.2898 88.8258C30.8688 88.8258 29.5898 89.1756 28.4529 89.8752C27.3161 90.5748 26.4196 91.5368 25.7637 92.7611C25.1298 93.9636 24.8127 95.3519 24.8127 96.926C24.8127 98.6091 25.3046 99.9209 26.2885 100.861C27.2942 101.802 28.6934 102.271 30.4861 102.271ZM40.2802 104.141L40.8377 102.14C40.9906 102.162 41.1328 102.195 41.264 102.239C41.3952 102.261 41.5153 102.271 41.6247 102.271C42.4118 102.271 43.1005 101.921 43.6908 101.222C44.3029 100.501 44.8495 99.4511 45.3305 98.0738C45.8333 96.6964 46.3361 95.013 46.839 93.0235L48.3476 86.9565H60.9734L57.4972 104.174H55.1688L58.3498 88.2355L58.8417 88.9898H49.4626L50.1512 88.2355L48.9051 93.253C48.424 95.1332 47.943 96.7726 47.4621 98.1722C47.003 99.5495 46.5001 100.697 45.9536 101.616C45.4289 102.534 44.8386 103.222 44.1827 103.682C43.5486 104.141 42.8162 104.37 41.9855 104.37C41.7012 104.37 41.428 104.348 41.1656 104.305C40.9032 104.261 40.6081 104.206 40.2802 104.141ZM73.5282 92.9907C75.474 92.9907 76.9279 93.3733 77.8898 94.1385C78.8737 94.9036 79.3656 96.0624 79.3656 97.6147C79.3656 98.9486 79.0268 100.107 78.349 101.091C77.6931 102.075 76.7639 102.84 75.5614 103.386C74.359 103.911 72.9488 104.174 71.331 104.174H64.1162L67.5924 86.9565H69.888L68.7074 92.9907H73.5282ZM71.331 102.403C72.4679 102.403 73.4626 102.216 74.3153 101.845C75.1679 101.452 75.8347 100.916 76.3157 100.238C76.7967 99.5389 77.0372 98.7297 77.0372 97.8114C77.0372 95.7563 75.6489 94.7288 72.8723 94.7288H68.3467L66.8054 102.403H71.331ZM94.2714 102.14L93.6155 102.763L96.7641 86.9565H99.0925L95.9439 102.763L95.452 102.14H105.061L104.34 102.763L107.488 86.9565H109.783L106.34 104.174H82.531L85.9744 86.9565H88.3028L85.1874 102.763L84.7282 102.14H94.2714ZM121.089 104.337C119.449 104.337 118.017 104.042 116.793 103.452C115.59 102.84 114.661 101.987 114.005 100.894C113.371 99.8013 113.054 98.5001 113.054 96.9916C113.054 95.0239 113.469 93.2749 114.3 91.7445C115.131 90.214 116.268 89.0116 117.711 88.1371C119.154 87.2408 120.782 86.7925 122.597 86.7925C124.127 86.7925 125.45 87.0877 126.565 87.678C127.68 88.2464 128.544 89.0772 129.156 90.1703C129.79 91.2635 130.107 92.5752 130.107 94.1057C130.107 94.4555 130.085 94.8162 130.042 95.1879C129.997 95.5377 129.943 95.8766 129.878 96.2045H114.76L115.055 94.4664H128.796L127.844 95.1223C128.062 93.7449 127.964 92.5862 127.549 91.6461C127.134 90.706 126.488 89.9955 125.614 89.5145C124.762 89.0117 123.734 88.7602 122.532 88.7602C121.132 88.7602 119.886 89.11 118.793 89.8096C117.699 90.4874 116.847 91.4384 116.235 92.6627C115.623 93.8652 115.317 95.2754 115.317 96.8932C115.317 98.6207 115.809 99.9537 116.793 100.894C117.798 101.812 119.296 102.271 121.286 102.271C122.444 102.271 123.516 102.085 124.499 101.714C125.483 101.32 126.292 100.785 126.926 100.107L127.976 101.78C127.166 102.589 126.15 103.222 124.926 103.682C123.723 104.119 122.444 104.337 121.089 104.337ZM130.961 108.961L133.617 102.895L133.847 104.337C133.365 104.337 132.961 104.174 132.633 103.846C132.305 103.518 132.141 103.113 132.141 102.632C132.141 102.085 132.328 101.638 132.699 101.288C133.07 100.938 133.497 100.763 133.978 100.763C134.459 100.763 134.853 100.927 135.159 101.255C135.487 101.561 135.65 101.966 135.65 102.468C135.65 102.753 135.596 103.026 135.487 103.288C135.399 103.528 135.246 103.835 135.027 104.206L132.535 108.961H130.961ZM161.317 96.926C160.245 97.3851 159.174 97.7352 158.103 97.9754C157.031 98.1943 156.015 98.3033 155.053 98.3033C152.976 98.3033 151.424 97.822 150.396 96.8604C149.39 95.8985 149.073 94.4555 149.445 92.5315L150.56 86.9565H152.889L151.774 92.5643C151.511 93.8761 151.719 94.849 152.397 95.483C153.096 96.0952 154.146 96.4013 155.545 96.4013C156.441 96.4013 157.392 96.281 158.398 96.0405C159.425 95.7782 160.475 95.4283 161.546 94.9911L161.317 96.926ZM159.612 104.174L163.055 86.9565H165.383L161.94 104.174H159.612ZM176.653 104.337C175.013 104.337 173.581 104.042 172.357 103.452C171.154 102.84 170.225 101.987 169.569 100.894C168.936 99.8013 168.618 98.5001 168.618 96.9916C168.618 95.0239 169.034 93.2749 169.865 91.7445C170.695 90.214 171.832 89.0116 173.275 88.1371C174.718 87.2408 176.347 86.7925 178.162 86.7925C179.692 86.7925 181.015 87.0877 182.13 87.678C183.245 88.2464 184.108 89.0772 184.72 90.1703C185.354 91.2635 185.671 92.5752 185.671 94.1057C185.671 94.4555 185.649 94.8162 185.606 95.1879C185.562 95.5377 185.508 95.8766 185.442 96.2045H170.324L170.619 94.4664H184.36L183.409 95.1223C183.628 93.7449 183.529 92.5862 183.114 91.6461C182.698 90.706 182.054 89.9955 181.179 89.5145C180.326 89.0117 179.299 88.7602 178.096 88.7602C176.696 88.7602 175.45 89.11 174.357 89.8096C173.265 90.4874 172.412 91.4384 171.799 92.6627C171.187 93.8652 170.881 95.2754 170.881 96.8932C170.881 98.6207 171.373 99.9537 172.357 100.894C173.363 101.812 174.86 102.271 176.85 102.271C178.008 102.271 179.08 102.085 180.064 101.714C181.047 101.32 181.857 100.785 182.49 100.107L183.54 101.78C182.731 102.589 181.714 103.222 180.49 103.682C179.287 104.119 178.008 104.337 176.653 104.337ZM188.953 104.174L192.396 86.9565H194.725L199.873 100.173H198.89L209.482 86.9565H211.679L208.236 104.174H206.104L209.023 89.6128L209.417 89.8096L199.545 102.075H198.496L193.544 89.6784L194.003 89.5801L191.084 104.174H188.953ZM231.447 104.337C229.807 104.337 228.386 104.042 227.183 103.452C226.003 102.84 225.084 101.987 224.429 100.894C223.795 99.8013 223.478 98.5107 223.478 97.0244C223.478 95.0567 223.904 93.3077 224.757 91.7773C225.609 90.225 226.79 89.0116 228.298 88.1371C229.829 87.2408 231.567 86.7925 233.513 86.7925C235.109 86.7925 236.475 87.0877 237.612 87.678C238.77 88.2464 239.667 89.099 240.301 90.2359L238.333 91.3837C237.852 90.5092 237.186 89.8643 236.333 89.4489C235.502 89.0334 234.496 88.8258 233.316 88.8258C231.873 88.8258 230.583 89.1756 229.446 89.8752C228.309 90.5748 227.413 91.5368 226.757 92.7611C226.123 93.9636 225.806 95.3519 225.806 96.926C225.806 98.6091 226.298 99.9209 227.282 100.861C228.288 101.802 229.708 102.271 231.545 102.271C232.66 102.271 233.687 102.064 234.628 101.648C235.589 101.211 236.376 100.588 236.989 99.7791L238.661 101.058C237.918 102.085 236.901 102.895 235.611 103.485C234.322 104.053 232.933 104.337 231.447 104.337ZM250.152 104.337C248.512 104.337 247.08 104.042 245.856 103.452C244.653 102.84 243.724 101.987 243.068 100.894C242.435 99.8013 242.117 98.5001 242.117 96.9916C242.117 95.0239 242.533 93.2749 243.363 91.7445C244.194 90.214 245.331 89.0116 246.774 88.1371C248.217 87.2408 249.846 86.7925 251.66 86.7925C253.191 86.7925 254.514 87.0877 255.629 87.678C256.744 88.2464 257.607 89.0772 258.219 90.1703C258.853 91.2635 259.17 92.5752 259.17 94.1057C259.17 94.4555 259.148 94.8162 259.105 95.1879C259.061 95.5377 259.006 95.8766 258.941 96.2045H243.823L244.118 94.4664H257.859L256.908 95.1223C257.126 93.7449 257.028 92.5862 256.612 91.6461C256.197 90.706 255.552 89.9955 254.677 89.5145C253.825 89.0117 252.798 88.7602 251.595 88.7602C250.195 88.7602 248.949 89.11 247.856 89.8096C246.763 90.4874 245.911 91.4384 245.298 92.6627C244.686 93.8652 244.38 95.2754 244.38 96.8932C244.38 98.6207 244.872 99.9537 245.856 100.894C246.862 101.812 248.359 102.271 250.349 102.271C251.507 102.271 252.579 102.085 253.562 101.714C254.546 101.32 255.356 100.785 255.989 100.107L257.039 101.78C256.229 102.589 255.213 103.222 253.989 103.682C252.786 104.119 251.507 104.337 250.152 104.337ZM262.452 104.174L265.928 86.9565H268.256L265.469 100.861L279.636 86.9565H281.866L278.423 104.174H276.029L278.882 90.2359L264.714 104.174H262.452ZM274.454 84.4313C272.946 84.4313 271.809 84.0597 271.044 83.3163C270.278 82.5512 270.016 81.5235 270.257 80.2337H271.864C271.71 81.0863 271.885 81.775 272.388 82.2997C272.891 82.8244 273.623 83.0868 274.586 83.0868C275.525 83.0868 276.334 82.8353 277.012 82.3325C277.712 81.8078 278.16 81.1082 278.357 80.2337H279.997C279.734 81.5673 279.111 82.6058 278.127 83.3491C277.165 84.0706 275.941 84.4313 274.454 84.4313ZM297.426 96.926C296.354 97.3851 295.284 97.7352 294.212 97.9754C293.14 98.1943 292.124 98.3033 291.162 98.3033C289.086 98.3033 287.533 97.822 286.505 96.8604C285.499 95.8985 285.183 94.4555 285.554 92.5315L286.669 86.9565H288.998L287.883 92.5643C287.62 93.8761 287.828 94.849 288.506 95.483C289.205 96.0952 290.255 96.4013 291.654 96.4013C292.55 96.4013 293.501 96.281 294.507 96.0405C295.534 95.7782 296.584 95.4283 297.655 94.9911L297.426 96.926ZM295.721 104.174L299.164 86.9565H301.492L298.049 104.174H295.721ZM312.237 104.337C310.773 104.337 309.472 104.042 308.335 103.452C307.199 102.862 306.313 102.02 305.678 100.927C305.045 99.8341 304.727 98.5329 304.727 97.0244C304.727 95.5595 304.969 94.2041 305.449 92.9579C305.93 91.7117 306.608 90.6295 307.482 89.7112C308.357 88.7711 309.384 88.0496 310.565 87.5468C311.768 87.044 313.069 86.7925 314.467 86.7925C315.976 86.7925 317.255 87.0658 318.304 87.6124C319.354 88.1371 320.163 88.9133 320.731 89.9408C321.3 90.9465 321.584 92.1708 321.584 93.6138C321.584 95.6907 321.202 97.5385 320.436 99.156C319.671 100.774 318.589 102.042 317.189 102.96C315.791 103.878 314.139 104.337 312.237 104.337ZM312.729 102.271C314.172 102.271 315.451 101.933 316.566 101.255C317.703 100.556 318.589 99.5929 319.223 98.3689C319.878 97.1449 320.206 95.7563 320.206 94.2041C320.206 92.4988 319.704 91.1761 318.698 90.2359C317.714 89.2958 316.326 88.8258 314.533 88.8258C313.112 88.8258 311.833 89.1756 310.696 89.8752C309.56 90.5748 308.663 91.5368 308.007 92.7611C307.373 93.9636 307.056 95.3519 307.056 96.926C307.056 98.6091 307.548 99.9209 308.532 100.861C309.538 101.802 310.937 102.271 312.729 102.271ZM318.403 104.174L319.387 99.2216L320.37 95.7454L320.698 92.138L321.748 86.9565H324.076L320.633 104.174H318.403ZM335.274 104.337C333.635 104.337 332.213 104.042 331.011 103.452C329.831 102.84 328.912 101.987 328.256 100.894C327.622 99.8013 327.305 98.5107 327.305 97.0244C327.305 95.0567 327.732 93.3077 328.584 91.7773C329.437 90.225 330.618 89.0116 332.126 88.1371C333.656 87.2408 335.394 86.7925 337.34 86.7925C338.936 86.7925 340.303 87.0877 341.44 87.678C342.598 88.2464 343.494 89.099 344.129 90.2359L342.161 91.3837C341.68 90.5092 341.013 89.8643 340.161 89.4489C339.329 89.0334 338.324 88.8258 337.144 88.8258C335.701 88.8258 334.41 89.1756 333.274 89.8752C332.137 90.5748 331.241 91.5368 330.585 92.7611C329.95 93.9636 329.634 95.3519 329.634 96.926C329.634 98.6091 330.126 99.9209 331.109 100.861C332.115 101.802 333.536 102.271 335.373 102.271C336.488 102.271 337.515 102.064 338.455 101.648C339.417 101.211 340.204 100.588 340.817 99.7791L342.489 101.058C341.745 102.085 340.729 102.895 339.439 103.485C338.149 104.053 336.761 104.337 335.274 104.337ZM348.643 87.8419L351.266 81.8078L351.496 83.2507C351.015 83.2507 350.611 83.0868 350.283 82.7588C349.955 82.4309 349.791 82.0265 349.791 81.5454C349.791 80.9988 349.977 80.5507 350.348 80.2009C350.72 79.851 351.146 79.6762 351.627 79.6762C352.108 79.6762 352.502 79.8401 352.808 80.1681C353.136 80.4741 353.3 80.8787 353.3 81.3815C353.3 81.6657 353.245 81.939 353.136 82.2013C353.048 82.4418 352.906 82.7479 352.709 83.1196L350.217 87.8419H348.643ZM354.218 87.8419L356.841 81.8078L357.071 83.2507C356.59 83.2507 356.186 83.0868 355.858 82.7588C355.53 82.4309 355.366 82.0265 355.366 81.5454C355.366 80.9988 355.552 80.5507 355.923 80.2009C356.295 79.851 356.721 79.6762 357.202 79.6762C357.684 79.6762 358.077 79.8401 358.383 80.1681C358.711 80.4741 358.875 80.8787 358.875 81.3815C358.875 81.6657 358.82 81.939 358.711 82.2013C358.623 82.4418 358.481 82.7479 358.284 83.1196L355.792 87.8419H354.218Z" fill="white"/>
<path d="M13.0054 57.3799C11.9341 57.839 10.8629 58.1889 9.79154 58.4293C8.72025 58.648 7.70363 58.7573 6.74167 58.7573C4.6647 58.7573 3.11242 58.2762 2.08487 57.3143C1.07918 56.3524 0.762168 54.9094 1.13384 52.9855L2.24884 47.4104H4.57724L3.46223 53.0182C3.19988 54.33 3.40757 55.303 4.08533 55.9369C4.78493 56.5491 5.83435 56.8552 7.23358 56.8552C8.12996 56.8552 9.08099 56.7349 10.0867 56.4944C11.1142 56.2321 12.1636 55.8823 13.2349 55.445L13.0054 57.3799ZM11.3001 64.6274L14.7435 47.4104H17.0719L13.6285 64.6274H11.3001ZM23.4883 64.6274L26.6365 48.8206L27.0957 49.4437H20.0121L20.4056 47.4104H35.8189L35.3926 49.4437H28.2435L28.9649 48.8206L25.8167 64.6274H23.4883ZM42.812 64.7914C41.2161 64.7914 39.8278 64.4963 38.6472 63.906C37.4885 63.2938 36.5811 62.4411 35.9252 61.348C35.2912 60.2549 34.9742 58.9649 34.9742 57.4783C34.9742 55.5106 35.4005 53.7616 36.2532 52.2312C37.1058 50.679 38.2864 49.4656 39.795 48.591C41.3035 47.6947 43.0198 47.2464 44.9437 47.2464C46.5397 47.2464 47.9171 47.5416 49.0758 48.1319C50.2564 48.7222 51.1637 49.5639 51.7977 50.6571C52.4536 51.7502 52.7815 53.0401 52.7815 54.5268C52.7815 56.4944 52.3552 58.2544 51.5025 59.8067C50.6499 61.3371 49.4693 62.5505 47.9608 63.4468C46.4741 64.3432 44.7579 64.7914 42.812 64.7914ZM42.976 62.7254C44.419 62.7254 45.698 62.3865 46.813 61.7087C47.9499 61.0092 48.8353 60.0471 49.4693 58.8228C50.1252 57.5986 50.4531 56.2102 50.4531 54.658C50.4531 52.9527 49.9503 51.63 48.9446 50.6898C47.9608 49.7497 46.5725 49.2797 44.7797 49.2797C43.3586 49.2797 42.0797 49.6295 40.9428 50.3291C39.806 51.0287 38.9095 51.9907 38.2536 53.215C37.6196 54.4175 37.3026 55.8058 37.3026 57.3799C37.3026 59.0633 37.7945 60.3751 38.7783 61.3152C39.7841 62.2554 41.1833 62.7254 42.976 62.7254ZM64.5081 64.8242C62.0594 64.8242 60.1465 64.1027 58.7691 62.6598C57.3917 61.2168 56.703 59.1289 56.703 56.3961C56.703 54.5815 56.9763 52.8543 57.5229 51.2146C58.0695 49.5748 58.8456 48.0772 59.8513 46.7217C60.857 45.3663 62.0594 44.2294 63.4587 43.3111C64.8579 42.3929 66.3993 41.7589 68.0827 41.4091L76.0845 39.7365L76.1501 41.737L68.6074 43.3111C66.8584 43.6828 65.3061 44.3824 63.9506 45.41C62.6169 46.4375 61.5238 47.7275 60.6712 49.2797C59.8404 50.8319 59.2938 52.581 59.0314 54.5268L58.3428 54.1005C59.3485 52.2203 60.6493 50.7882 62.2453 49.8044C63.8413 48.8206 65.6231 48.3287 67.5908 48.3287C69.7771 48.3287 71.4824 48.9299 72.7067 50.1323C73.9529 51.3129 74.576 52.9746 74.576 55.1171C74.576 56.9755 74.1387 58.637 73.2642 60.1018C72.4115 61.5667 71.22 62.7254 69.6896 63.578C68.1811 64.4088 66.4539 64.8242 64.5081 64.8242ZM64.6721 62.9877C66.0713 62.9877 67.3284 62.6598 68.4434 62.0039C69.5803 61.3261 70.4658 60.4298 71.0998 59.3148C71.7556 58.1779 72.0836 56.8989 72.0836 55.4778C72.0836 53.86 71.6245 52.6138 70.7062 51.7393C69.788 50.8429 68.509 50.3947 66.8693 50.3947C65.8418 50.3947 64.8579 50.5806 63.9178 50.9522C62.9777 51.3238 62.136 51.8268 61.3926 52.4607C60.6493 53.0947 60.059 53.8272 59.6217 54.658C59.2063 55.4887 58.9987 56.3742 58.9987 57.3143C58.9987 59.0196 59.5015 60.397 60.5072 61.4464C61.5347 62.4739 62.9231 62.9877 64.6721 62.9877ZM94.5817 64.6274L98.0256 47.4104H100.354L96.9106 64.6274H94.5817ZM87.1046 53.4446C89.0286 53.4446 90.4716 53.8272 91.4335 54.5924C92.4173 55.3575 92.9092 56.5163 92.9092 58.0686C92.9092 59.4022 92.5704 60.5609 91.8926 61.5448C91.2367 62.5286 90.3076 63.2938 89.1051 63.8404C87.9027 64.3651 86.4925 64.6274 84.8746 64.6274H77.791L81.2345 47.4432H83.5629L82.3823 53.4446H87.1046ZM84.8746 62.8565C86.0115 62.8565 87.0063 62.6707 87.8589 62.299C88.7116 61.9055 89.3784 61.3699 89.8594 60.6921C90.3404 59.9925 90.5808 59.1836 90.5808 58.2653C90.5808 56.2102 89.1926 55.1827 86.416 55.1827H82.0215L80.4802 62.8565H84.8746ZM138.392 64.6274L133.013 53.1822L135.243 52.0016L141.146 64.6274H138.392ZM127.93 54.1005L128.357 51.9688H134.915L134.489 54.1005H127.93ZM135.145 53.4118L132.948 53.0182L142.524 41.6714H145.213L135.145 53.4118ZM112.451 64.6274H109.533L120.486 52.0016L122.355 53.1822L112.451 64.6274ZM126.586 64.6274H124.224L128.816 41.6714H131.177L126.586 64.6274ZM127.078 54.1005H120.486L120.912 51.9688H127.471L127.078 54.1005ZM120.191 53.4118L114.812 41.6714H117.338L122.388 53.0182L120.191 53.4118ZM144.917 64.6274L148.393 47.4104H150.721L147.934 61.3152L162.101 47.4104H164.331L160.888 64.6274H158.494L161.347 50.6898L147.18 64.6274H144.917ZM171.963 64.8242C169.274 64.8242 167.077 64.0918 165.372 62.627L166.355 60.9873C167.011 61.5776 167.821 62.0258 168.782 62.3318C169.766 62.6379 170.838 62.791 171.996 62.791C173.133 62.791 174.139 62.6379 175.013 62.3318C175.91 62.0039 176.61 61.5776 177.112 61.0529C177.616 60.5063 177.866 59.8942 177.866 59.2164C177.866 58.3856 177.506 57.7406 176.784 57.2815C176.063 56.8224 175.046 56.5928 173.734 56.5928H170.881L171.143 54.8219H173.603C175.09 54.8219 176.282 54.5487 177.178 54.0021C178.096 53.4337 178.555 52.7122 178.555 51.8377C178.555 51.0287 178.194 50.3947 177.473 49.9356C176.773 49.4765 175.779 49.2469 174.489 49.2469C173.592 49.2469 172.696 49.3672 171.799 49.6076C170.925 49.8481 169.996 50.187 169.012 50.6243L168.356 48.6894C169.428 48.1866 170.488 47.8149 171.537 47.5744C172.609 47.3339 173.658 47.2137 174.685 47.2137C175.931 47.2137 177.025 47.3885 177.965 47.7384C178.905 48.0882 179.637 48.5801 180.162 49.2141C180.687 49.8481 180.949 50.6024 180.949 51.4769C180.949 52.2421 180.742 52.9308 180.326 53.543C179.911 54.1552 179.309 54.6689 178.522 55.0843C177.757 55.4778 176.85 55.7511 175.8 55.9042L175.735 55.4778C177.178 55.6746 178.282 56.1118 179.047 56.7896C179.813 57.4455 180.195 58.309 180.195 59.3804C180.195 60.4079 179.834 61.3371 179.112 62.1679C178.413 62.9768 177.44 63.6217 176.194 64.1027C174.948 64.5837 173.537 64.8242 171.963 64.8242ZM184.373 64.6274L187.816 47.4104H190.145L188.636 55.0187H199.458L201 47.4104H203.328L199.885 64.6274H197.556L199.065 57.0192H188.243L186.701 64.6274H184.373ZM215.883 53.4446C217.828 53.4446 219.282 53.8272 220.244 54.5924C221.228 55.3575 221.72 56.5163 221.72 58.0686C221.72 59.4022 221.381 60.5609 220.703 61.5448C220.048 62.5286 219.118 63.2938 217.916 63.8404C216.713 64.3651 215.303 64.6274 213.685 64.6274H206.471L209.947 47.4104H212.242L211.062 53.4446H215.883ZM213.685 62.8565C214.822 62.8565 215.817 62.6707 216.67 62.299C217.522 61.9055 218.189 61.3699 218.67 60.6921C219.151 59.9925 219.392 59.1836 219.392 58.2653C219.392 56.2102 218.003 55.1827 215.227 55.1827H210.701L209.16 62.8565H213.685ZM233.927 64.6274L238.518 41.6714H248.324C250.532 41.6714 252.259 42.0868 253.505 42.9176C254.752 43.7484 255.375 44.9617 255.375 46.5578C255.375 48.0444 255.014 49.2906 254.293 50.2963C253.571 51.2801 252.62 52.0235 251.439 52.5263C250.281 53.0291 249.023 53.2806 247.668 53.2806L248.39 52.5263C250.226 52.5263 251.68 52.9527 252.751 53.8053C253.844 54.6361 254.391 55.8714 254.391 57.5111C254.391 59.0415 253.987 60.3423 253.178 61.4136C252.39 62.4849 251.265 63.2938 249.8 63.8404C248.335 64.3651 246.596 64.6274 244.585 64.6274H233.927ZM236.715 62.627H244.782C247.078 62.627 248.849 62.1898 250.095 61.3152C251.363 60.4407 251.997 59.1836 251.997 57.5439C251.997 56.2321 251.538 55.3139 250.62 54.7891C249.724 54.2644 248.4 54.0021 246.651 54.0021H238.027L238.42 52.0016H246.16C247.471 52.0016 248.63 51.8158 249.636 51.4441C250.663 51.0725 251.462 50.515 252.03 49.7716C252.598 49.0064 252.882 48.0772 252.882 46.9841C252.882 45.8472 252.445 45.0164 251.571 44.4917C250.696 43.9451 249.461 43.6719 247.865 43.6719H240.486L236.715 62.627ZM265.8 64.7914C264.335 64.7914 263.034 64.4963 261.898 63.906C260.761 63.3157 259.875 62.4739 259.242 61.3808C258.607 60.2877 258.291 58.9868 258.291 57.4783C258.291 56.0134 258.531 54.658 259.012 53.4118C259.492 52.1656 260.17 51.0834 261.045 50.1651C261.919 49.225 262.947 48.5035 264.128 48.0007C265.33 47.4979 266.631 47.2464 268.03 47.2464C269.539 47.2464 270.818 47.5197 271.867 48.0663C272.917 48.591 273.725 49.3672 274.294 50.3947C274.862 51.4004 275.147 52.6247 275.147 54.0677C275.147 56.1446 274.764 57.9921 273.999 59.6099C273.233 61.2277 272.151 62.4958 270.752 63.414C269.353 64.3323 267.703 64.7914 265.8 64.7914ZM266.292 62.7254C267.735 62.7254 269.014 62.3865 270.129 61.7087C271.266 61.0092 272.151 60.0471 272.786 58.8228C273.442 57.5986 273.769 56.2102 273.769 54.658C273.769 52.9527 273.266 51.63 272.261 50.6898C271.277 49.7497 269.888 49.2797 268.096 49.2797C266.674 49.2797 265.395 49.6295 264.259 50.3291C263.122 51.0287 262.226 51.9907 261.57 53.215C260.935 54.4175 260.619 55.8058 260.619 57.3799C260.619 59.0633 261.111 60.3751 262.095 61.3152C263.1 62.2554 264.499 62.7254 266.292 62.7254ZM271.966 64.6274L272.95 59.6755L273.933 56.1993L274.261 52.5919L275.311 47.4104H277.639L274.196 64.6274H271.966ZM280.802 64.6274L284.245 47.4104H286.574L291.722 60.6265H290.739L301.331 47.4104H303.528L300.085 64.6274H297.953L300.872 50.0668L301.266 50.2635L291.395 62.5286H290.345L285.393 50.1323L285.852 50.034L282.934 64.6274H280.802ZM315.262 64.6274L318.705 47.4104H321.034L319.525 55.0187H330.347L331.889 47.4104H334.217L330.774 64.6274H328.445L329.954 57.0192H319.132L317.59 64.6274H315.262ZM347.001 64.7914C345.515 64.7914 344.236 64.5291 343.164 64.0043C342.115 63.4577 341.306 62.6817 340.737 61.6759C340.191 60.6484 339.907 59.4131 339.885 57.9702C339.885 55.8495 340.268 53.9912 341.033 52.3952C341.797 50.7773 342.88 49.5202 344.279 48.6238C345.679 47.7056 347.329 47.2464 349.231 47.2464C350.718 47.2464 352.019 47.5416 353.134 48.1319C354.271 48.7003 355.156 49.5312 355.79 50.6243C356.446 51.7174 356.774 53.0182 356.774 54.5268C356.774 56.0134 356.534 57.3799 356.052 58.6261C355.571 59.8723 354.882 60.9545 353.986 61.8727C353.111 62.791 352.084 63.5124 350.904 64.0371C349.723 64.54 348.422 64.7914 347.001 64.7914ZM336.146 70.9895L340.836 47.4104H343.066L342.082 52.3624L341.131 55.8058L340.77 59.4131L338.475 70.9895H336.146ZM346.968 62.7254C348.411 62.7254 349.69 62.3865 350.805 61.7087C351.92 61.0092 352.795 60.0471 353.429 58.8228C354.085 57.5986 354.413 56.2102 354.413 54.658C354.413 52.9527 353.921 51.63 352.937 50.6898C351.953 49.7497 350.554 49.2797 348.739 49.2797C347.318 49.2797 346.04 49.6295 344.902 50.3291C343.787 51.0287 342.902 51.9907 342.246 53.215C341.612 54.4175 341.295 55.8058 341.295 57.3799C341.295 59.0633 341.787 60.3751 342.771 61.3152C343.754 62.2554 345.154 62.7254 346.968 62.7254ZM367.609 64.7914C366.145 64.7914 364.844 64.4963 363.707 63.906C362.571 63.3157 361.685 62.4739 361.051 61.3808C360.417 60.2877 360.1 58.9868 360.1 57.4783C360.1 56.0134 360.341 54.658 360.821 53.4118C361.302 52.1656 361.98 51.0834 362.854 50.1651C363.729 49.225 364.756 48.5035 365.937 48.0007C367.14 47.4979 368.441 47.2464 369.84 47.2464C371.348 47.2464 372.627 47.5197 373.676 48.0663C374.726 48.591 375.535 49.3672 376.103 50.3947C376.672 51.4004 376.956 52.6247 376.956 54.0677C376.956 56.1446 376.574 57.9921 375.808 59.6099C375.043 61.2277 373.961 62.4958 372.561 63.414C371.163 64.3323 369.512 64.7914 367.609 64.7914ZM368.101 62.7254C369.544 62.7254 370.823 62.3865 371.938 61.7087C373.076 61.0092 373.961 60.0471 374.595 58.8228C375.251 57.5986 375.578 56.2102 375.578 54.658C375.578 52.9527 375.076 51.63 374.07 50.6898C373.086 49.7497 371.698 49.2797 369.905 49.2797C368.484 49.2797 367.205 49.6295 366.068 50.3291C364.932 51.0287 364.035 51.9907 363.379 53.215C362.745 54.4175 362.428 55.8058 362.428 57.3799C362.428 59.0633 362.92 60.3751 363.904 61.3152C364.91 62.2554 366.309 62.7254 368.101 62.7254ZM373.775 64.6274L374.759 59.6755L375.742 56.1993L376.07 52.5919L377.12 47.4104H379.448L376.005 64.6274H373.775ZM382.612 64.6274L386.088 47.4104H393.598C395.412 47.4104 396.79 47.7384 397.73 48.3942C398.671 49.0282 399.14 49.9684 399.14 51.2146C399.14 52.6794 398.528 53.8709 397.304 54.7891C396.08 55.6855 394.473 56.1337 392.483 56.1337L392.909 55.5106C394.724 55.5106 396.047 55.8167 396.877 56.4289C397.73 57.0192 398.156 57.9593 398.156 59.2492C398.156 60.9326 397.478 62.2554 396.123 63.2173C394.789 64.1574 392.942 64.6274 390.581 64.6274H382.612ZM385.268 62.791H390.712C392.33 62.791 393.587 62.4739 394.483 61.8399C395.402 61.2059 395.861 60.3205 395.861 59.1836C395.861 58.3309 395.576 57.7187 395.008 57.3471C394.44 56.9755 393.522 56.7896 392.253 56.7896H386.482L385.268 62.791ZM386.81 55.0515H391.958C393.401 55.0515 394.56 54.7454 395.434 54.1333C396.331 53.4993 396.779 52.6575 396.779 51.6081C396.779 50.7991 396.473 50.1979 395.861 49.8044C395.271 49.4109 394.374 49.2141 393.172 49.2141H387.99L386.81 55.0515ZM402.563 64.6274L406.04 47.4104H408.368L405.58 61.3152L419.748 47.4104H421.978L418.534 64.6274H416.14L418.993 50.6898L404.826 64.6274H402.563ZM422.027 64.5947L422.584 62.5942C422.737 62.6161 422.879 62.6489 423.011 62.6926C423.142 62.7145 423.261 62.7254 423.371 62.7254C424.158 62.7254 424.847 62.3755 425.437 61.6759C426.049 60.9545 426.596 59.9051 427.077 58.5277C427.58 57.1503 428.082 55.4669 428.586 53.4774L430.094 47.4104H442.72L439.244 64.6274H436.915L440.097 48.6894L440.588 49.4437H431.209L431.898 48.6894L430.652 53.7069C430.17 55.5871 429.689 57.2268 429.209 58.6261C428.75 60.0034 428.246 61.1512 427.7 62.0695C427.176 62.9877 426.585 63.6764 425.929 64.1355C425.295 64.5946 424.563 64.8242 423.732 64.8242C423.448 64.8242 423.175 64.8023 422.912 64.7586C422.65 64.7149 422.355 64.6602 422.027 64.5947ZM453.471 64.7914C452.006 64.7914 450.705 64.4963 449.568 63.906C448.431 63.3157 447.546 62.4739 446.912 61.3808C446.278 60.2877 445.961 58.9868 445.961 57.4783C445.961 56.0134 446.201 54.658 446.682 53.4118C447.164 52.1656 447.841 51.0834 448.716 50.1651C449.59 49.225 450.618 48.5035 451.798 48.0007C453.001 47.4979 454.301 47.2464 455.701 47.2464C457.209 47.2464 458.488 47.5197 459.538 48.0663C460.587 48.591 461.396 49.3672 461.965 50.3947C462.533 51.4004 462.817 52.6247 462.817 54.0677C462.817 56.1446 462.434 57.9921 461.669 59.6099C460.905 61.2277 459.822 62.4958 458.423 63.414C457.023 64.3323 455.373 64.7914 453.471 64.7914ZM453.963 62.7254C455.406 62.7254 456.685 62.3865 457.8 61.7087C458.937 61.0092 459.822 60.0471 460.456 58.8228C461.112 57.5986 461.44 56.2102 461.44 54.658C461.44 52.9527 460.937 51.63 459.931 50.6898C458.947 49.7497 457.559 49.2797 455.766 49.2797C454.346 49.2797 453.067 49.6295 451.929 50.3291C450.792 51.0287 449.896 51.9907 449.24 53.215C448.607 54.4175 448.289 55.8058 448.289 57.3799C448.289 59.0633 448.781 60.3751 449.765 61.3152C450.771 62.2554 452.17 62.7254 453.963 62.7254ZM459.636 64.6274L460.62 59.6755L461.604 56.1993L461.932 52.5919L462.981 47.4104H465.31L461.866 64.6274H459.636ZM476.507 64.7914C474.867 64.7914 473.446 64.4963 472.244 63.906C471.063 63.2938 470.145 62.4411 469.489 61.348C468.855 60.2549 468.538 58.9649 468.538 57.4783C468.538 55.5106 468.964 53.7616 469.817 52.2312C470.669 50.679 471.85 49.4656 473.359 48.591C474.889 47.6947 476.627 47.2464 478.573 47.2464C480.169 47.2464 481.536 47.5416 482.672 48.1319C483.832 48.7003 484.728 49.5529 485.361 50.6898L483.394 51.8377C482.913 50.9631 482.246 50.3182 481.393 49.9028C480.563 49.4874 479.557 49.2797 478.376 49.2797C476.933 49.2797 475.644 49.6295 474.506 50.3291C473.37 51.0287 472.473 51.9907 471.817 53.215C471.184 54.4175 470.866 55.8058 470.866 57.3799C470.866 59.0633 471.358 60.3751 472.342 61.3152C473.348 62.2554 474.769 62.7254 476.605 62.7254C477.72 62.7254 478.748 62.5177 479.688 62.1023C480.651 61.6651 481.438 61.042 482.049 60.233L483.722 61.512C482.979 62.5395 481.962 63.3485 480.672 63.9388C479.382 64.5072 477.994 64.7914 476.507 64.7914ZM496.78 53.4446C498.726 53.4446 500.18 53.8272 501.141 54.5924C502.125 55.3575 502.617 56.5163 502.617 58.0686C502.617 59.4022 502.278 60.5609 501.6 61.5448C500.944 62.5286 500.016 63.2938 498.813 63.8404C497.611 64.3651 496.201 64.6274 494.582 64.6274H487.368L490.844 47.4104H493.139L491.959 53.4446H496.78ZM494.582 62.8565C495.72 62.8565 496.714 62.6707 497.567 62.299C498.419 61.9055 499.087 61.3699 499.567 60.6921C500.048 59.9925 500.289 59.1836 500.289 58.2653C500.289 56.2102 498.901 55.1827 496.124 55.1827H491.598L490.057 62.8565H494.582Z" fill="#FF8838"/>
</svg>
