<svg width="555" height="75" viewBox="0 0 555 75" fill="none" xmlns="http://www.w3.org/2000/svg">
<path d="M49.3993 58.066V14.954L30.7024 48.1232H26.3078L7.53097 14.954V58.066H0.339844V1.59085H7.93048L28.4651 38.2599L49.0797 1.59085H56.5905V58.066H49.3993Z" fill="white"/>
<path d="M65.3908 46.0551C65.3908 43.4037 66.1366 41.1235 67.6281 39.2144C69.1728 37.2524 71.2769 35.7411 73.9403 34.6805C76.6037 33.62 79.6932 33.0897 83.2089 33.0897C85.0732 33.0897 87.0441 33.2488 89.1216 33.5669C91.199 33.8321 93.0367 34.2563 94.6348 34.8396V31.817C94.6348 28.6353 93.676 26.143 91.7583 24.34C89.8407 22.484 87.124 21.556 83.6084 21.556C81.3179 21.556 79.1073 21.9802 76.9765 22.8287C74.8991 23.6241 72.6885 24.7907 70.3447 26.3286L67.7879 21.3969C70.5045 19.5409 73.2212 18.1622 75.9378 17.2607C78.6545 16.3062 81.4777 15.829 84.4074 15.829C89.7341 15.829 93.9423 17.3137 97.0318 20.2833C100.121 23.1999 101.666 27.2831 101.666 32.5329V50.1118C101.666 50.9602 101.826 51.5966 102.145 52.0208C102.518 52.392 103.104 52.6041 103.903 52.6571V58.066C103.211 58.1721 102.598 58.2516 102.066 58.3046C101.586 58.3577 101.187 58.3842 100.867 58.3842C99.2158 58.3842 97.964 57.9334 97.1117 57.032C96.3127 56.1305 95.8599 55.176 95.7534 54.1684L95.5936 51.5435C93.7825 53.8768 91.4121 55.6797 88.4824 56.9524C85.5526 58.2251 82.6496 58.8614 79.7731 58.8614C77.0032 58.8614 74.5262 58.3046 72.3423 57.191C70.1583 56.0244 68.4537 54.4866 67.2286 52.5776C66.0034 50.6155 65.3908 48.4414 65.3908 46.0551ZM92.5573 48.9982C93.1965 48.2558 93.7026 47.5134 94.0755 46.771C94.4483 45.9756 94.6348 45.3127 94.6348 44.7824V39.6122C92.9835 38.9758 91.2523 38.4986 89.4412 38.1804C87.6301 37.8092 85.8456 37.6236 84.0878 37.6236C80.5188 37.6236 77.6158 38.3395 75.3785 39.7712C73.1945 41.15 72.1026 43.059 72.1026 45.4983C72.1026 46.824 72.4488 48.1232 73.1413 49.3959C73.887 50.6155 74.9524 51.6231 76.3373 52.4185C77.7756 53.2139 79.5334 53.6116 81.6108 53.6116C83.7948 53.6116 85.8722 53.1874 87.8431 52.339C89.814 51.4375 91.3854 50.3239 92.5573 48.9982Z" fill="white"/>
<path d="M135.361 58.8614C131.952 58.8614 128.916 58.013 126.253 56.3161C123.589 54.6192 121.485 52.4715 119.94 49.8731V75.0086H112.909V16.5448H119.141V24.34C120.793 21.7946 122.95 19.753 125.613 18.2152C128.277 16.6244 131.18 15.829 134.323 15.829C137.199 15.829 139.836 16.4123 142.233 17.5789C144.63 18.7455 146.707 20.3364 148.465 22.3514C150.223 24.3665 151.581 26.6732 152.54 29.2716C153.552 31.817 154.058 34.4949 154.058 37.3054C154.058 41.2295 153.259 44.8354 151.661 48.1232C150.117 51.411 147.933 54.0359 145.109 55.9979C142.286 57.9069 139.037 58.8614 135.361 58.8614ZM133.204 52.8162C135.282 52.8162 137.146 52.392 138.797 51.5435C140.502 50.642 141.94 49.4754 143.112 48.0437C144.337 46.5589 145.269 44.8885 145.908 43.0325C146.548 41.1765 146.867 39.2675 146.867 37.3054C146.867 35.2373 146.494 33.2753 145.749 31.4193C145.056 29.5633 144.044 27.9194 142.712 26.4876C141.434 25.0559 139.916 23.9423 138.158 23.1469C136.453 22.2984 134.589 21.8742 132.565 21.8742C131.286 21.8742 129.955 22.1128 128.57 22.5901C127.238 23.0673 125.96 23.7567 124.735 24.6582C123.509 25.5066 122.471 26.4876 121.618 27.6012C120.766 28.7148 120.207 29.908 119.94 31.1807V43.0325C120.739 44.8354 121.805 46.4793 123.136 47.9641C124.468 49.4489 126.013 50.642 127.771 51.5435C129.529 52.392 131.34 52.8162 133.204 52.8162Z" fill="white"/>
<path d="M162.612 58.066V16.6244H169.643V48.68L192.974 16.5448H199.366V58.066H192.335V26.6467L169.323 58.066H162.612Z" fill="white"/>
<path d="M207.485 58.066L219.31 41.3621C216.594 40.8318 214.41 39.5591 212.758 37.5441C211.107 35.4759 210.281 32.7185 210.281 29.2716C210.281 26.7793 210.867 24.5786 212.039 22.6696C213.211 20.7606 214.836 19.2493 216.913 18.1357C219.044 17.0221 221.521 16.4653 224.344 16.4653H241.443V58.066H234.412V42.4757H226.262L215.235 58.066H207.485ZM224.824 37.3054H234.412V21.9537H225.623C223.119 21.9537 221.121 22.6696 219.63 24.1014C218.138 25.4801 217.393 27.2566 217.393 29.4307C217.393 31.6049 218.005 33.4609 219.23 34.9987C220.509 36.5365 222.373 37.3054 224.824 37.3054Z" fill="white"/>
<path d="M317.689 43.5097C317.689 46.4263 316.943 48.9717 315.452 51.1458C313.96 53.32 311.936 55.0169 309.379 56.2365C306.876 57.4562 304.106 58.066 301.069 58.066H274.143V1.59085H302.348C305.011 1.59085 307.302 2.30673 309.219 3.7385C311.19 5.11723 312.682 6.9202 313.694 9.14739C314.759 11.3215 315.292 13.6018 315.292 15.988C315.292 18.7455 314.573 21.3439 313.135 23.7832C311.75 26.1695 309.752 27.9459 307.142 29.1125C310.391 30.0671 312.948 31.8435 314.813 34.4419C316.73 36.9873 317.689 40.0099 317.689 43.5097ZM310.418 42.2371C310.418 40.4871 310.018 38.8698 309.219 37.385C308.474 35.9002 307.435 34.707 306.103 33.8056C304.825 32.9041 303.333 32.4533 301.629 32.4533H281.334V51.8617H301.069C302.827 51.8617 304.399 51.411 305.784 50.5095C307.222 49.608 308.341 48.4414 309.14 47.0096C309.992 45.5248 310.418 43.934 310.418 42.2371ZM281.334 7.79516V26.6467H299.392C301.096 26.6467 302.588 26.2225 303.866 25.3741C305.198 24.5256 306.236 23.3855 306.982 21.9537C307.781 20.522 308.181 18.9576 308.181 17.2607C308.181 15.4578 307.808 13.8669 307.062 12.4882C306.37 11.0564 305.384 9.91629 304.106 9.06784C302.881 8.21939 301.469 7.79516 299.871 7.79516H281.334Z" fill="white"/>
<path d="M323.354 46.0551C323.354 43.4037 324.1 41.1235 325.591 39.2144C327.136 37.2524 329.24 35.7411 331.903 34.6805C334.567 33.62 337.656 33.0897 341.172 33.0897C343.036 33.0897 345.007 33.2488 347.085 33.5669C349.162 33.8321 351 34.2563 352.598 34.8396V31.817C352.598 28.6353 351.639 26.143 349.721 24.34C347.804 22.484 345.087 21.556 341.571 21.556C339.281 21.556 337.07 21.9802 334.94 22.8287C332.862 23.6241 330.652 24.7907 328.308 26.3286L325.751 21.3969C328.468 19.5409 331.184 18.1622 333.901 17.2607C336.617 16.3062 339.441 15.829 342.37 15.829C347.697 15.829 351.905 17.3137 354.995 20.2833C358.084 23.1999 359.629 27.2831 359.629 32.5329V50.1118C359.629 50.9602 359.789 51.5966 360.109 52.0208C360.481 52.392 361.067 52.6041 361.866 52.6571V58.066C361.174 58.1721 360.561 58.2516 360.029 58.3046C359.549 58.3577 359.15 58.3842 358.83 58.3842C357.179 58.3842 355.927 57.9334 355.075 57.032C354.276 56.1305 353.823 55.176 353.716 54.1684L353.557 51.5435C351.746 53.8768 349.375 55.6797 346.445 56.9524C343.516 58.2251 340.613 58.8614 337.736 58.8614C334.966 58.8614 332.489 58.3046 330.305 57.191C328.121 56.0244 326.417 54.4866 325.192 52.5776C323.966 50.6155 323.354 48.4414 323.354 46.0551ZM350.52 48.9982C351.16 48.2558 351.666 47.5134 352.038 46.771C352.411 45.9756 352.598 45.3127 352.598 44.7824V39.6122C350.946 38.9758 349.215 38.4986 347.404 38.1804C345.593 37.8092 343.809 37.6236 342.051 37.6236C338.482 37.6236 335.579 38.3395 333.342 39.7712C331.158 41.15 330.066 43.059 330.066 45.4983C330.066 46.824 330.412 48.1232 331.104 49.3959C331.85 50.6155 332.915 51.6231 334.3 52.4185C335.739 53.2139 337.496 53.6116 339.574 53.6116C341.758 53.6116 343.835 53.1874 345.806 52.339C347.777 51.4375 349.348 50.3239 350.52 48.9982Z" fill="white"/>
<path d="M389.329 58.8614C386.187 58.8614 383.31 58.3046 380.7 57.191C378.143 56.0244 375.906 54.4336 373.988 52.4185C372.124 50.4034 370.659 48.0967 369.594 45.4983C368.582 42.8999 368.076 40.1424 368.076 37.2259C368.076 33.3018 368.954 29.7224 370.712 26.4876C372.47 23.2529 374.947 20.681 378.143 18.772C381.339 16.81 385.041 15.829 389.249 15.829C393.351 15.829 396.92 16.7569 399.956 18.6129C403.046 20.4159 405.336 22.8552 406.828 25.9308L399.956 28.0785C398.891 26.1164 397.399 24.6051 395.482 23.5446C393.564 22.431 391.433 21.8742 389.09 21.8742C386.533 21.8742 384.189 22.537 382.058 23.8627C379.981 25.1885 378.33 27.0179 377.104 29.3512C375.879 31.6314 375.267 34.2563 375.267 37.2259C375.267 40.1424 375.879 42.7939 377.104 45.1801C378.383 47.5134 380.061 49.3694 382.138 50.7481C384.269 52.1268 386.613 52.8162 389.17 52.8162C390.821 52.8162 392.392 52.5246 393.884 51.9412C395.428 51.3579 396.76 50.589 397.879 49.6345C399.051 48.627 399.85 47.5399 400.276 46.3733L407.147 48.4414C406.295 50.4564 404.99 52.2594 403.232 53.8503C401.528 55.3881 399.477 56.6077 397.08 57.5092C394.736 58.4107 392.152 58.8614 389.329 58.8614Z" fill="white"/>
<path d="M415.034 58.066V16.6244H422.066V48.68L445.397 16.5448H451.789V58.066H444.758V26.6467L421.746 58.066H415.034Z" fill="white"/>
<path d="M459.349 58.3842V52.1003C460.734 52.1003 461.959 51.7556 463.024 51.0663C464.143 50.3239 465.128 49.1042 465.98 47.4073C466.833 45.6574 467.499 43.2711 467.978 40.2485C468.511 37.1729 468.857 33.2753 469.017 28.5557L469.496 16.5448H497.861V58.066H490.83V22.7491H475.728L475.569 29.1921C475.356 34.8661 474.876 39.5856 474.13 43.3507C473.385 47.1157 472.346 50.0852 471.014 52.2594C469.683 54.4336 468.031 55.9979 466.06 56.9524C464.143 57.9069 461.905 58.3842 459.349 58.3842Z" fill="white"/>
<path d="M509.137 58.066V16.5448H516.168V30.7034H526.556C531.456 30.7034 535.158 31.9496 537.662 34.4419C540.219 36.8812 541.497 40.0894 541.497 44.0665C541.497 46.7179 540.938 49.1042 539.819 51.2254C538.754 53.3465 537.156 55.0169 535.025 56.2365C532.895 57.4562 530.231 58.066 527.035 58.066H509.137ZM516.168 52.5776H526.076C528.047 52.5776 529.619 52.2064 530.79 51.464C532.016 50.6686 532.921 49.6345 533.507 48.3618C534.093 47.0891 534.386 45.7104 534.386 44.2256C534.386 42.7939 534.12 41.4681 533.587 40.2485C533.054 39.0288 532.175 38.0478 530.95 37.3054C529.725 36.563 528.047 36.1918 525.916 36.1918H516.168V52.5776Z" fill="white"/>
<path d="M549.168 18.2152L550.766 9.06784H548.369V0H555.001V9.06784L552.604 18.2152H549.168Z" fill="white"/>
</svg>
